<svg width="84" height="93" viewBox="0 0 84 93" fill="none" xmlns="http://www.w3.org/2000/svg">
<path d="M10.6136 81.547L10.1803 79.5234L9.76042 77.6041C9.36641 78.9633 9.14671 79.8724 9.14671 79.8724C9.05708 79.5156 8.94882 79.026 8.83888 78.4152C8.72894 77.8044 8.63554 77.075 8.54831 76.2348C8.46107 75.3945 8.38784 74.4539 8.35595 73.4167C7.98108 74.239 7.68784 74.9424 7.47856 75.4436L7.1531 76.2449C7.07513 75.8711 6.98912 75.4218 6.91584 74.8813C6.84256 74.3407 6.76378 73.7064 6.71468 72.9924C6.66559 72.2785 6.62139 71.4629 6.62638 70.5611C6.63136 69.6593 6.66857 68.6596 6.75497 67.5738C6.36697 68.3571 6.05932 69.0306 5.83563 69.5018L5.49829 70.2549C5.42797 69.8264 5.35214 69.3041 5.29795 68.6266C5.24377 67.9492 5.19065 67.1975 5.18397 66.3126C5.17729 65.4278 5.19245 64.453 5.28904 63.2942C4.66044 64.1369 4.2822 64.7168 4.2822 64.7168C4.28479 64.2985 4.30012 63.7889 4.35934 63.1645C4.41855 62.5401 4.49049 61.8244 4.65847 61.0198C4.82645 60.2152 4.96541 59.2855 5.20442 58.3047C4.43548 59.2209 3.95189 59.8234 3.95189 59.8234C4.01299 59.3853 4.09064 58.8286 4.18356 58.1624C4.27648 57.4961 4.44064 56.7189 4.65526 55.8463C4.86988 54.9738 5.14662 53.9889 5.51028 52.9139C4.54271 53.9884 3.91899 54.7295 3.91899 54.7295C3.96991 54.3644 4.03228 53.9172 4.10611 53.3879C4.17994 52.8586 4.32904 52.256 4.49743 51.5817C4.66581 50.9074 4.88211 50.156 5.15417 49.338C5.42622 48.5199 5.74748 47.6157 6.13762 46.6839L6.24582 45.9082C5.38935 46.7191 4.86634 47.2044 4.86634 47.2044C4.92744 46.7664 5.1028 46.2419 5.29344 45.6079C5.48408 44.9739 5.7343 44.2459 6.06359 43.4172C6.39288 42.5886 6.78303 41.6567 7.26284 40.6816C6.30825 41.33 5.71997 41.7504 5.71997 41.7504C5.88133 41.3263 6.09442 40.7978 6.38533 40.1778C6.67623 39.5578 7.0371 38.8359 7.49272 38.0341C7.94835 37.2324 8.4856 36.3118 9.13477 35.3882C8.0015 35.9186 7.28032 36.2926 7.28032 36.2926C7.45629 35.9635 7.67891 35.5666 7.95475 35.1213C8.23058 34.6759 8.56088 34.1731 8.95352 33.6231C9.34616 33.0731 9.7933 32.4656 10.3197 31.8226C10.8461 31.1796 11.4336 30.4986 12.1094 29.7834C10.9702 30.0897 10.2342 30.3034 10.2342 30.3034C10.5052 29.9597 10.8435 29.5324 11.2729 29.0527C11.7022 28.5729 12.2158 28.0212 12.8308 27.4091C13.4458 26.7971 14.1467 26.1692 14.9567 25.4913C13.6681 25.4697 12.8209 25.4818 12.8209 25.4818C13.1168 25.2254 13.4738 24.9309 13.8736 24.5959C14.2735 24.2609 14.8151 23.9085 15.3983 23.5246C15.9815 23.1408 16.6376 22.7671 17.3768 22.3305C18.116 21.894 18.9438 21.4884 19.8471 21.0748C19.0096 20.8835 18.2984 20.7192 17.784 20.6103C17.2695 20.5013 16.9713 20.4411 16.9713 20.4411C17.3168 20.2288 17.7404 19.9901 18.2379 19.6873C18.7355 19.3846 19.3282 19.1323 19.991 18.8433C20.6539 18.5543 21.3935 18.2481 22.2243 17.9545C23.0551 17.661 23.9691 17.3698 24.9731 17.1005C23.6273 16.2894 22.6792 15.692 22.6792 15.692C23.0562 15.5213 23.5435 15.2915 24.118 15.0367C24.6925 14.7819 25.3645 14.4942 26.0937 14.1958C26.8229 13.8974 27.7071 13.6207 28.6277 13.349C29.6138 13.0685 30.6135 12.8384 31.623 12.6596C30.9552 11.3848 30.5267 10.4598 30.5267 10.4598C30.9483 10.4349 31.5455 10.3507 32.2649 10.2556C32.9844 10.1606 33.8352 10.056 34.7838 9.9836C35.8107 9.90202 36.8411 9.87492 37.8708 9.90243C39.0202 9.93255 40.1654 10.0519 41.2963 10.2593C41.1675 9.45046 41.1086 8.93981 41.1086 8.93981C52.4121 8.84165 61.5134 16.2052 62.1202 16.7178C62.7271 17.2304 63.0407 17.6463 63.0324 17.9057C63.0241 18.1651 63.3766 18.5026 63.4018 18.655C64.407 23.7729 60.68 33.5061 54.8225 39.1275C54.8225 39.1275 54.6297 38.6447 54.3578 37.8624C53.9719 38.8972 53.6013 39.8224 53.255 40.6394C52.9088 41.4564 52.6077 42.1494 52.3388 42.7446C52.07 43.3397 51.8645 43.8135 51.7212 44.175C51.7212 44.175 51.4732 43.5542 51.1266 42.5755C50.6493 43.5324 50.2248 44.3105 49.851 45.0585C49.4772 45.8065 49.1119 46.3604 48.8206 46.8501C48.5293 47.3398 48.265 47.7029 48.0538 48.0177C48.0538 48.0177 47.9714 47.0759 47.9084 45.6622C47.5384 46.7829 47.2146 47.7053 46.9345 48.4478C46.6544 49.1903 46.4154 49.771 46.2242 50.2095C46.2242 50.2095 46.0263 49.3632 45.771 48.0622C45.3703 48.9367 45.0122 49.7055 44.6785 50.3661C44.3447 51.0266 44.0627 51.5828 43.8039 52.0398C43.545 52.4968 43.312 52.9016 43.128 53.155C43.128 53.155 43.0092 52.2081 42.8809 50.7294C42.2959 51.7922 41.7767 52.6502 41.3414 53.3059C40.9062 53.9616 40.5343 54.4959 40.2517 54.8566L40.2854 53.5494C39.8115 54.3486 39.3803 55.0421 38.9904 55.639C38.6005 56.2359 38.2507 56.7453 37.9422 57.1582C37.6337 57.5711 37.3757 57.8886 37.1552 58.137C37.1552 58.137 37.1218 57.4438 37.0976 56.3519C36.4251 57.3094 35.8249 58.0817 35.3205 58.6999C34.9236 59.18 34.5028 59.6399 34.0598 60.0778C34.0598 60.0778 34.0571 59.2307 34.109 57.9261C33.4927 58.9473 32.9162 59.8159 32.4409 60.5591C31.9655 61.3022 31.5002 61.9072 31.1061 62.4012C30.7119 62.8952 30.3891 63.2781 30.127 63.5579L30.1036 62.7266C30.0941 62.1949 30.0866 61.4495 30.0994 60.5581C29.5337 61.5492 29.0287 62.372 28.5947 63.0185C28.2565 63.5381 27.8919 64.0401 27.5023 64.5223L27.4172 63.1334C26.9891 64.0041 26.6022 64.7131 26.2346 65.3503C25.8669 65.9875 25.5498 66.5294 25.2648 66.9735C24.9799 67.4176 24.7182 67.8277 24.5107 68.0499L24.4273 67.1823C24.3826 66.6365 24.3164 65.8457 24.2601 64.9167C23.8392 66.0024 23.4478 66.9434 23.082 67.7669C22.7163 68.5905 22.3982 69.2719 22.1046 69.845C21.8109 70.4181 21.5624 70.8672 21.3566 71.2107L21.2265 70.411C21.1481 69.9069 21.0444 69.1854 20.9336 68.314C20.5644 69.2952 20.2222 70.15 19.9135 70.8977C19.6048 71.6455 19.3022 72.2825 19.0526 72.806C18.8031 73.3294 18.5663 73.7616 18.3812 74.0893L18.2448 73.3352C18.1704 72.869 18.0524 72.1826 17.9353 71.3569L16.5599 73.9562C16.1407 74.763 15.7434 75.4799 15.3862 76.1092C15.0289 76.7386 14.7117 77.2805 14.4359 77.7258C14.1601 78.1712 13.9152 78.5278 13.7325 78.7721C13.7325 78.7721 13.7173 78.0815 13.7318 76.9112C13.2365 77.9307 12.7713 79.0009 12.3736 79.9875C11.9758 80.9741 11.6662 81.8613 11.4457 82.5097L11.0949 83.5587C10.9108 82.9468 10.7693 82.2293 10.6136 81.547Z" fill="url(#paint0_linear_333_3594)"/>
<path d="M80.174 9.72713C81.1129 9.05794 84.4577 12.325 82.7836 13.0684C78.5564 14.9731 74.1196 16.3717 69.5653 17.2352C65.192 18.0115 51.2366 20.4007 33.3218 37.2544C24.4325 45.6256 12.6401 62.8866 11.2509 82.2406C12.2832 43.7264 50.2761 17.4942 68.1918 14.6245C72.4379 13.6962 76.4917 12.0393 80.174 9.72713Z" fill="url(#paint1_linear_333_3594)"/>
<g style="mix-blend-mode:multiply" opacity="0.3">
<path opacity="0.8" d="M11.3108 81.4117C13.033 62.4019 24.5884 45.5079 33.3492 37.2583C46.0783 25.273 56.8105 20.6106 63.5176 18.6247C64.5137 23.7412 60.7971 33.4666 54.9396 39.088C54.9396 39.088 54.7467 38.6052 54.4748 37.823C54.0889 38.8577 53.7183 39.7829 53.372 40.5999C53.0258 41.4169 52.7247 42.1099 52.4559 42.7051C52.187 43.3003 51.9816 43.774 51.8382 44.1355C51.8382 44.1355 51.5903 43.5148 51.2436 42.536C50.7663 43.4929 50.3419 44.2711 49.9681 45.0191C49.5943 45.7671 49.229 46.3209 48.9377 46.8106C48.6464 47.3003 48.382 47.6635 48.1708 47.9783C48.1708 47.9783 48.0885 47.0364 48.0255 45.6227C47.6554 46.7434 47.3316 47.6659 47.0515 48.4083C46.7714 49.1508 46.5325 49.7315 46.3412 50.1701C46.3412 50.1701 46.1433 49.3237 45.8881 48.0227C45.4873 48.8973 45.1292 49.6661 44.7955 50.3266C44.4618 50.9872 44.1798 51.5433 43.9209 52.0003C43.662 52.4573 43.429 52.8621 43.245 53.1156C43.245 53.1156 43.1262 52.1686 42.9979 50.69C42.413 51.7528 41.8937 52.6108 41.4585 53.2665C41.0232 53.9222 40.6513 54.4564 40.3687 54.8171L40.2854 53.5494C39.8115 54.3486 39.3803 55.0421 38.9904 55.639C38.6005 56.2359 38.2507 56.7453 37.9422 57.1582C37.6338 57.5711 37.3757 57.8887 37.1553 58.137C37.1553 58.137 37.1219 57.4439 37.0976 56.3519C36.4251 57.3095 35.8249 58.0817 35.3205 58.6999C34.9236 59.1801 34.5029 59.64 34.0598 60.0778C34.0598 60.0778 34.0571 59.2308 34.109 57.9261C33.4927 58.9474 32.9162 59.816 32.4409 60.5591C31.9656 61.3023 31.5002 61.9073 31.1061 62.4012C30.712 62.8952 30.3891 63.2781 30.1271 63.5579L30.1036 62.7266C30.0941 62.195 30.0866 61.4496 30.0994 60.5582C29.5338 61.5492 29.0287 62.372 28.5948 63.0186C28.2565 63.5382 27.8919 64.0401 27.5023 64.5223L27.4172 63.1335C26.9891 64.0041 26.6022 64.7131 26.2346 65.3503C25.8669 65.9875 25.5498 66.5295 25.2648 66.9735C24.9799 67.4176 24.7182 67.8277 24.5107 68.05L24.4273 67.1824C24.3826 66.6365 24.3164 65.8457 24.2601 64.9168C23.8392 66.0025 23.4478 66.9434 23.082 67.767C22.7163 68.5905 22.3982 69.2719 22.1046 69.845C21.8109 70.4181 21.5625 70.8673 21.3566 71.2107L21.2265 70.411C21.1482 69.907 21.0444 69.1854 20.9336 68.314C20.5645 69.2952 20.2222 70.15 19.9135 70.8978C19.6048 71.6456 19.3022 72.2826 19.0527 72.806C18.8031 73.3294 18.5663 73.7616 18.3812 74.0893L18.2448 73.3353C18.1704 72.869 18.0524 72.1827 17.9353 71.3569L16.5599 73.9563C16.1408 74.7631 15.7434 75.4799 15.3862 76.1093C15.0289 76.7386 14.7118 77.2805 14.4359 77.7259C14.1601 78.1712 13.9152 78.5278 13.7325 78.7721C13.7325 78.7721 13.7173 78.0815 13.7318 76.9113C13.2366 77.9307 12.7714 79.0009 12.3736 79.9875C11.9758 80.9741 11.6662 81.8613 11.4457 82.5097C11.2252 83.1582 11.1452 83.3982 11.1092 83.5235L11.3108 81.4117Z" fill="url(#paint2_linear_333_3594)"/>
<path d="M11.2485 81.4588L11.0653 83.6383L10.6136 81.547L10.1804 79.5234L9.76044 77.6041C9.36643 78.9633 9.14673 79.8724 9.14673 79.8724C9.0571 79.5156 8.94884 79.026 8.8389 78.4152C8.72896 77.8045 8.63556 77.075 8.54833 76.2348C8.46109 75.3946 8.38786 74.454 8.35597 73.4168C7.9811 74.2391 7.68786 74.9425 7.47858 75.4436L7.15312 76.2449C7.07515 75.8712 6.98914 75.4219 6.91586 74.8813C6.84258 74.3408 6.7638 73.7064 6.7147 72.9925C6.66561 72.2785 6.62141 71.4629 6.6264 70.5611C6.63138 69.6593 6.66859 68.6597 6.75499 67.5738C6.36699 68.3571 6.05934 69.0306 5.83565 69.5018L5.49831 70.2549C5.42799 69.8264 5.35215 69.3041 5.29797 68.6267C5.24378 67.9492 5.19067 67.1975 5.18399 66.3127C5.17731 65.4279 5.19247 64.4531 5.28906 63.2942C4.66046 64.1369 4.28222 64.7169 4.28222 64.7169C4.28481 64.2985 4.30014 63.789 4.35936 63.1645C4.41857 62.5401 4.49051 61.8244 4.65849 61.0198C4.82647 60.2152 4.96543 59.2856 5.20444 58.3048C4.4355 59.221 3.95191 59.8234 3.95191 59.8234C4.01301 59.3853 4.09066 58.8286 4.18358 58.1624C4.2765 57.4961 4.44066 56.7189 4.65528 55.8463C4.8699 54.9738 5.14664 53.9889 5.5103 52.9139C4.54273 53.9884 3.91901 54.7295 3.91901 54.7295C3.96993 54.3645 4.0323 53.9173 4.10613 53.3879C4.17996 52.8586 4.32906 52.256 4.49744 51.5817C4.66583 50.9074 4.88213 50.156 5.15419 49.338C5.42624 48.52 5.74749 47.6158 6.13763 46.684L6.24583 45.9082C5.38937 46.7191 4.86636 47.2044 4.86636 47.2044C4.92746 46.7664 5.10283 46.2419 5.29346 45.6079C5.4841 44.9739 5.73432 44.2459 6.06361 43.4172C6.3929 42.5886 6.78305 41.6568 7.26286 40.6816C6.30827 41.33 5.71999 41.7504 5.71999 41.7504C5.88135 41.3263 6.09444 40.7978 6.38534 40.1778C6.67624 39.5578 7.03712 38.8359 7.49274 38.0341C7.94837 37.2324 8.48562 36.3118 9.13479 35.3882C8.00152 35.9187 7.28034 36.2926 7.28034 36.2926C7.45632 35.9636 7.67893 35.5666 7.95477 35.1213C8.2306 34.6759 8.5609 34.1731 8.95354 33.6231C9.34618 33.0731 9.79332 32.4656 10.3197 31.8226C10.8461 31.1796 11.4336 30.4986 12.1094 29.7834C10.9703 30.0897 10.2343 30.3034 10.2343 30.3034C10.5052 29.9597 10.8436 29.5324 11.2729 29.0527C11.7022 28.5729 12.2158 28.0212 12.8309 27.4092C13.4459 26.7971 14.1467 26.1692 14.9568 25.4913C13.6682 25.4698 12.8209 25.4818 12.8209 25.4818C13.1168 25.2254 13.4738 24.9309 13.8737 24.5959C14.2735 24.2609 14.8151 23.9085 15.3983 23.5246C15.9815 23.1408 16.6376 22.7671 17.3768 22.3306C18.116 21.894 18.9438 21.4884 19.8471 21.0748C19.0096 20.8836 18.2984 20.7192 17.784 20.6103C17.2695 20.5013 16.9713 20.4411 16.9713 20.4411C17.3169 20.2288 17.7404 19.9901 18.2379 19.6874C18.7355 19.3846 19.3282 19.1323 19.9911 18.8433C20.6539 18.5543 21.3936 18.2481 22.2243 17.9546C23.0551 17.6611 23.9691 17.3699 24.9731 17.1005C23.6274 16.2894 22.6793 15.692 22.6793 15.692C23.0562 15.5213 23.5435 15.2915 24.118 15.0367C24.6925 14.7819 25.3645 14.4942 26.0937 14.1958C26.8229 13.8974 27.7071 13.6207 28.6277 13.349C29.6139 13.0685 30.6136 12.8384 31.623 12.6596C30.9552 11.3849 30.5267 10.4598 30.5267 10.4598C30.9483 10.4349 31.5455 10.3507 32.2649 10.2557C32.9844 10.1606 33.8353 10.056 34.7838 9.98362C35.8107 9.90203 36.8412 9.87494 37.8708 9.90245C39.0202 9.93257 40.1654 10.0519 41.2963 10.2593C41.1675 9.45047 41.1086 8.93983 41.1086 8.93983C51.341 8.85974 59.6896 14.825 61.6936 16.3792C42.6631 23.1778 12.6074 47.4654 11.2485 81.4588Z" fill="url(#paint3_linear_333_3594)"/>
</g>
<path style="mix-blend-mode:screen" opacity="0.5" d="M54.5963 37.5514C56.0411 33.8546 53.5815 27.706 52.1455 23.4121C52.1532 23.3573 51.6934 21.5906 51.6504 21.566C51.2171 21.2078 50.2558 22.1716 50.3929 22.321C52.3143 24.9335 55.6856 34.6052 54.5963 37.5514Z" fill="url(#paint4_linear_333_3594)"/>
<path style="mix-blend-mode:screen" opacity="0.5" d="M48.1471 45.8164C51.2269 41.3894 48.3884 25.2329 48.38 24.627C48.3886 24.5591 48.3716 24.4904 48.3325 24.4343C47.8531 23.8744 46.9793 24.9434 47.1024 25.1931C48.8609 28.9738 50.4487 42.2391 48.1471 45.8164Z" fill="url(#paint5_linear_333_3594)"/>
<path style="mix-blend-mode:screen" opacity="0.5" d="M42.9561 51.0563C44.3852 49.0041 44.5452 43.9931 44.0327 39.5395C43.5526 36.0265 42.6674 32.5812 41.395 29.2724C41.4051 29.1994 40.4033 29.7203 40.5277 29.9609C42.0503 32.9438 43.0805 36.154 43.5783 39.4668C44.3296 44.1398 44.2021 49.1181 42.9561 51.0563Z" fill="url(#paint6_linear_333_3594)"/>
<path style="mix-blend-mode:screen" opacity="0.5" d="M35.5488 57.1966C36.9788 54.6049 37.3824 49.2464 37.1366 44.7463C36.919 41.3814 36.2807 38.0574 35.2367 34.8519C35.2456 34.788 34.28 35.6488 34.3978 35.87C35.7152 38.6849 36.5047 41.7184 36.7269 44.8194C37.1371 49.4727 36.8022 54.7384 35.5488 57.1966Z" fill="url(#paint7_linear_333_3594)"/>
<path style="mix-blend-mode:screen" opacity="0.5" d="M30.4106 60.1921C31.5907 57.9935 31.8916 53.5046 31.4838 49.6332C31.1209 46.6068 30.4034 43.6338 29.3463 40.7756C29.3539 40.7208 28.4042 41.6676 28.5271 41.8522C29.801 44.2793 30.6292 46.9158 30.9723 49.6363C31.5666 53.636 31.4402 58.14 30.4106 60.1921Z" fill="url(#paint8_linear_333_3594)"/>
<path style="mix-blend-mode:screen" opacity="0.5" d="M24.4244 64.6047C25.501 62.615 25.8567 58.5989 25.596 55.1387C25.3405 52.46 24.7731 49.8205 23.9054 47.2738C23.9118 47.2282 23.0672 48.0873 23.1653 48.2498C24.2322 50.411 24.8979 52.7484 25.1301 55.1482C25.5799 58.7184 25.3622 62.7445 24.4244 64.6047Z" fill="url(#paint9_linear_333_3594)"/>
<path style="mix-blend-mode:screen" opacity="0.5" d="M21.2694 69.9704C22.0231 68.3636 22.0031 65.3092 21.3826 62.4966C20.7595 59.886 19.8198 57.3616 18.5843 54.9796C18.5919 54.9249 17.7676 56.038 17.9126 56.1978C19.3299 58.1109 20.359 60.2837 20.9417 62.5933C21.7134 65.4548 21.8856 68.484 21.2694 69.9704Z" fill="url(#paint10_linear_333_3594)"/>
<path style="mix-blend-mode:screen" opacity="0.5" d="M18.383 73.4103C19.5884 71.4293 16.8475 62.3015 16.4046 60.9465C16.0734 61.5176 15.8561 62.1477 15.7649 62.8017C17.7591 66.2245 18.8051 72.7156 18.383 73.4103Z" fill="url(#paint11_linear_333_3594)"/>
<path style="mix-blend-mode:screen" opacity="0.5" d="M59.1816 33.3901C60.9661 30.1222 59.5163 23.9283 58.5394 18.675C58.547 18.6203 56.7317 18.3113 56.8078 18.4986C58.3273 21.1947 60.4969 30.7545 59.1816 33.3901Z" fill="url(#paint12_linear_333_3594)"/>
<path style="mix-blend-mode:screen" opacity="0.5" d="M33.3597 11.8041C38.0529 11.7981 45.1152 16.9233 50.105 20.1871C50.1688 20.196 52.229 21.4137 52.2591 21.4644C52.6215 22.0639 51.3114 22.6627 51.109 22.4484C48.2805 19.4116 37.0966 11.9252 33.3597 11.8041Z" fill="url(#paint13_linear_333_3594)"/>
<path style="mix-blend-mode:screen" opacity="0.5" d="M25.7805 16.2457C33.4187 13.2453 48.0337 24.1781 48.0716 24.2392C48.4692 24.8529 46.7851 25.2693 46.5827 25.055C41.2119 19.3935 29.857 15.0652 25.7805 16.2457Z" fill="url(#paint14_linear_333_3594)"/>
<path style="mix-blend-mode:screen" opacity="0.5" d="M19.9638 20.7749C22.3731 20.0224 27.3076 21.4177 31.6033 23.3287C34.9451 24.8925 38.1038 26.8214 41.022 29.0802C41.095 29.0904 40.3114 29.9115 40.0986 29.7051C37.579 27.3012 34.7006 25.3052 31.567 23.7888C27.1532 21.5916 22.2135 20.1676 19.9638 20.7749Z" fill="url(#paint15_linear_333_3594)"/>
<path style="mix-blend-mode:screen" opacity="0.5" d="M7.54962 38.9632C14.4501 32.7245 31.4553 36.3802 32.6119 36.6811C32.6757 36.69 31.7182 37.6264 31.5732 37.4666C30.3057 36.6944 12.8772 34.1426 7.54962 38.9632Z" fill="url(#paint16_linear_333_3594)"/>
<path style="mix-blend-mode:screen" opacity="0.5" d="M12.1435 28.8112C20.5382 24.2509 36.8799 31.3309 37.9579 31.8627C38.0217 31.8716 36.8448 32.582 36.6816 32.4197C35.6723 31.3951 18.6738 25.2934 12.1435 28.8112Z" fill="url(#paint17_linear_333_3594)"/>
<path style="mix-blend-mode:screen" opacity="0.5" d="M5.1455 49.7368C7.25804 47.3148 11.0747 45.4653 15.0779 44.5444C18.5065 43.7518 22.0584 43.6525 25.5254 44.2524C25.7715 44.2868 24.7377 45.8359 24.5137 45.7767C21.5792 45.148 18.5519 45.0825 15.5926 45.5838C11.3977 46.3477 6.77172 47.8703 5.1455 49.7368Z" fill="url(#paint18_linear_333_3594)"/>
<path style="mix-blend-mode:screen" opacity="0.5" d="M5.03377 59.7974C6.56406 57.2197 9.68938 54.8645 12.8606 53.4461C16.4386 51.8425 19.5768 51.9266 20.6951 51.636C20.7498 51.6437 20.3035 52.9118 20.0926 52.8917C17.7104 52.8344 15.3398 53.2432 13.1138 54.0954C10.3331 55.1125 5.84153 58.4029 5.03377 59.7974Z" fill="url(#paint19_linear_333_3594)"/>
<path style="mix-blend-mode:screen" opacity="0.5" d="M6.50996 67.4001C8.28315 61.3487 16.2427 57.9094 17.5606 57.321C17.3639 57.9463 17.0621 58.5335 16.668 59.0572C8.5069 62.1428 6.50996 67.4001 6.50996 67.4001Z" fill="url(#paint20_linear_333_3594)"/>
<path style="mix-blend-mode:screen" opacity="0.5" d="M42.6785 9.74516C49.8538 10.197 56.6988 18.6133 57.5355 19.4092C56.9175 19.3807 56.308 19.2548 55.7292 19.0363C54.1766 16.1775 45.6026 9.63199 42.6785 9.74516Z" fill="url(#paint21_linear_333_3594)"/>
<mask id="mask0_333_3594" style="mask-type:luminance" maskUnits="userSpaceOnUse" x="3" y="8" width="61" height="76">
<path d="M10.6136 81.547L10.1803 79.5234L9.76042 77.6041C9.36641 78.9633 9.14671 79.8724 9.14671 79.8724C9.05708 79.5156 8.94882 79.026 8.83888 78.4152C8.72894 77.8044 8.63554 77.075 8.54831 76.2348C8.46107 75.3945 8.38784 74.4539 8.35595 73.4167C7.98108 74.239 7.68784 74.9424 7.47856 75.4436L7.1531 76.2449C7.07513 75.8711 6.98912 75.4218 6.91584 74.8813C6.84256 74.3407 6.76378 73.7064 6.71468 72.9924C6.66559 72.2785 6.62139 71.4629 6.62638 70.5611C6.63136 69.6593 6.66857 68.6596 6.75497 67.5738C6.36697 68.3571 6.05932 69.0306 5.83563 69.5018L5.49829 70.2549C5.42797 69.8264 5.35214 69.3041 5.29795 68.6266C5.24377 67.9492 5.19065 67.1975 5.18397 66.3126C5.17729 65.4278 5.19245 64.453 5.28904 63.2942C4.66044 64.1369 4.2822 64.7168 4.2822 64.7168C4.28479 64.2985 4.30012 63.7889 4.35934 63.1645C4.41855 62.5401 4.49049 61.8244 4.65847 61.0198C4.82645 60.2152 4.96541 59.2855 5.20442 58.3047C4.43548 59.2209 3.95189 59.8234 3.95189 59.8234C4.01299 59.3853 4.09064 58.8286 4.18356 58.1624C4.27648 57.4961 4.44064 56.7189 4.65526 55.8463C4.86988 54.9738 5.14662 53.9889 5.51028 52.9139C4.54271 53.9884 3.91899 54.7295 3.91899 54.7295C3.96991 54.3644 4.03228 53.9172 4.10611 53.3879C4.17994 52.8586 4.32904 52.256 4.49743 51.5817C4.66581 50.9074 4.88211 50.156 5.15417 49.338C5.42622 48.5199 5.74748 47.6157 6.13762 46.6839L6.24582 45.9082C5.38935 46.7191 4.86634 47.2044 4.86634 47.2044C4.92744 46.7664 5.1028 46.2419 5.29344 45.6079C5.48408 44.9739 5.7343 44.2459 6.06359 43.4172C6.39288 42.5886 6.78303 41.6567 7.26284 40.6816C6.30825 41.33 5.71997 41.7504 5.71997 41.7504C5.88133 41.3263 6.09442 40.7978 6.38533 40.1778C6.67623 39.5578 7.0371 38.8359 7.49272 38.0341C7.94835 37.2324 8.4856 36.3118 9.13477 35.3882C8.0015 35.9186 7.28032 36.2926 7.28032 36.2926C7.45629 35.9635 7.67891 35.5666 7.95475 35.1213C8.23058 34.6759 8.56088 34.1731 8.95352 33.6231C9.34616 33.0731 9.7933 32.4656 10.3197 31.8226C10.8461 31.1796 11.4336 30.4986 12.1094 29.7834C10.9702 30.0897 10.2342 30.3034 10.2342 30.3034C10.5052 29.9597 10.8435 29.5324 11.2729 29.0527C11.7022 28.5729 12.2158 28.0212 12.8308 27.4091C13.4458 26.7971 14.1467 26.1692 14.9567 25.4913C13.6681 25.4697 12.8209 25.4818 12.8209 25.4818C13.1168 25.2254 13.4738 24.9309 13.8736 24.5959C14.2735 24.2609 14.8151 23.9085 15.3983 23.5246C15.9815 23.1408 16.6376 22.7671 17.3768 22.3305C18.116 21.894 18.9438 21.4884 19.8471 21.0748C19.0096 20.8835 18.2984 20.7192 17.784 20.6103C17.2695 20.5013 16.9713 20.4411 16.9713 20.4411C17.3168 20.2288 17.7404 19.9901 18.2379 19.6873C18.7355 19.3846 19.3282 19.1323 19.991 18.8433C20.6539 18.5543 21.3935 18.2481 22.2243 17.9545C23.0551 17.661 23.9691 17.3698 24.9731 17.1005C23.6273 16.2894 22.6792 15.692 22.6792 15.692C23.0562 15.5213 23.5435 15.2915 24.118 15.0367C24.6925 14.7819 25.3645 14.4942 26.0937 14.1958C26.8229 13.8974 27.7071 13.6207 28.6277 13.349C29.6138 13.0685 30.6135 12.8384 31.623 12.6596C30.9552 11.3848 30.5267 10.4598 30.5267 10.4598C30.9483 10.4349 31.5455 10.3507 32.2649 10.2556C32.9844 10.1606 33.8352 10.056 34.7838 9.9836C35.8107 9.90202 36.8411 9.87492 37.8708 9.90243C39.0202 9.93255 40.1654 10.0519 41.2963 10.2593C41.1675 9.45046 41.1086 8.93981 41.1086 8.93981C52.4121 8.84165 61.5134 16.2052 62.1202 16.7178C62.7271 17.2304 63.0407 17.6463 63.0324 17.9057C63.0241 18.1651 63.3766 18.5026 63.4018 18.655C64.407 23.7729 60.68 33.5061 54.8225 39.1275C54.8225 39.1275 54.6297 38.6447 54.3578 37.8624C53.9719 38.8972 53.6013 39.8224 53.255 40.6394C52.9088 41.4564 52.6077 42.1494 52.3388 42.7446C52.07 43.3397 51.8645 43.8135 51.7212 44.175C51.7212 44.175 51.4732 43.5542 51.1266 42.5755C50.6493 43.5324 50.2248 44.3105 49.851 45.0585C49.4772 45.8065 49.1119 46.3604 48.8206 46.8501C48.5293 47.3398 48.265 47.7029 48.0538 48.0177C48.0538 48.0177 47.9714 47.0759 47.9084 45.6622C47.5384 46.7829 47.2146 47.7053 46.9345 48.4478C46.6544 49.1903 46.4154 49.771 46.2242 50.2095C46.2242 50.2095 46.0263 49.3632 45.771 48.0622C45.3703 48.9367 45.0122 49.7055 44.6785 50.3661C44.3447 51.0266 44.0627 51.5828 43.8039 52.0398C43.545 52.4968 43.312 52.9016 43.128 53.155C43.128 53.155 43.0092 52.2081 42.8809 50.7294C42.2959 51.7922 41.7767 52.6502 41.3414 53.3059C40.9062 53.9616 40.5343 54.4959 40.2517 54.8566L40.2854 53.5494C39.8115 54.3486 39.3803 55.0421 38.9904 55.639C38.6005 56.2359 38.2507 56.7453 37.9422 57.1582C37.6337 57.5711 37.3757 57.8886 37.1552 58.137C37.1552 58.137 37.1218 57.4438 37.0976 56.3519C36.4251 57.3094 35.8249 58.0817 35.3205 58.6999C34.9236 59.18 34.5028 59.6399 34.0598 60.0778C34.0598 60.0778 34.0571 59.2307 34.109 57.9261C33.4927 58.9473 32.9162 59.8159 32.4409 60.5591C31.9655 61.3022 31.5002 61.9072 31.1061 62.4012C30.7119 62.8952 30.3891 63.2781 30.127 63.5579L30.1036 62.7266C30.0941 62.1949 30.0866 61.4495 30.0994 60.5581C29.5337 61.5492 29.0287 62.372 28.5947 63.0185C28.2565 63.5381 27.8919 64.0401 27.5023 64.5223L27.4172 63.1334C26.9891 64.0041 26.6022 64.7131 26.2346 65.3503C25.8669 65.9875 25.5498 66.5294 25.2648 66.9735C24.9799 67.4176 24.7182 67.8277 24.5107 68.0499L24.4273 67.1823C24.3826 66.6365 24.3164 65.8457 24.2601 64.9167C23.8392 66.0024 23.4478 66.9434 23.082 67.7669C22.7163 68.5905 22.3982 69.2719 22.1046 69.845C21.8109 70.4181 21.5624 70.8672 21.3566 71.2107L21.2265 70.411C21.1481 69.9069 21.0444 69.1854 20.9336 68.314C20.5644 69.2952 20.2222 70.15 19.9135 70.8977C19.6048 71.6455 19.3022 72.2825 19.0526 72.806C18.8031 73.3294 18.5663 73.7616 18.3812 74.0893L18.2448 73.3352C18.1704 72.869 18.0524 72.1826 17.9353 71.3569L16.5599 73.9562C16.1407 74.763 15.7434 75.4799 15.3862 76.1092C15.0289 76.7386 14.7117 77.2805 14.4359 77.7258C14.1601 78.1712 13.9152 78.5278 13.7325 78.7721C13.7325 78.7721 13.7173 78.0815 13.7318 76.9112C13.2365 77.9307 12.7713 79.0009 12.3736 79.9875C11.9758 80.9741 11.6662 81.8613 11.4457 82.5097L11.0949 83.5587C10.9108 82.9468 10.7693 82.2293 10.6136 81.547Z" fill="white"/>
</mask>
<g mask="url(#mask0_333_3594)">
<path style="mix-blend-mode:screen" d="M5.23817 70.6559C4.96856 69.0602 5.04313 67.4252 5.45688 65.8605C5.87064 64.2958 6.614 62.8378 7.63702 61.5844C9.21304 59.4783 12.0682 56.462 18.5253 55.3344C18.7724 55.2944 16.3609 59.061 16.3121 59.2775C13.7204 60.2002 11.3744 61.7058 9.4546 63.6784C7.53479 65.6509 6.09233 68.038 5.23817 70.6559Z" fill="url(#paint22_radial_333_3594)"/>
<path style="mix-blend-mode:screen" opacity="0.5" d="M7.11358 76.4626C6.8742 75.2477 6.04663 71.9876 6.40988 70.7822C7.39803 67.5614 11.6565 63.4104 16.3769 61.2777C16.5965 61.1688 13.4716 67.3851 13.402 67.6173C11.715 68.4692 10.2606 69.72 9.1649 71.2613C8.06916 72.8025 7.36507 74.5878 7.11358 76.4626Z" fill="url(#paint23_linear_333_3594)"/>
<path style="mix-blend-mode:screen" d="M2.58845 61.5405C2.45315 60.3122 4.64872 56.5619 6.4358 54.9411C8.44922 53.0169 10.8589 51.5572 13.4956 50.6648C16.1323 49.7725 18.932 49.4689 21.6979 49.7757C21.944 49.81 19.5637 52.7529 19.4784 52.9643C17.3283 52.5249 9.75728 53.7111 2.58845 61.5405Z" fill="url(#paint24_radial_333_3594)"/>
<path style="mix-blend-mode:screen" d="M2.05308 51.7897C2.5454 50.6581 2.95336 49.5986 6.32557 45.8729C14.7084 39.5991 23.0572 40.7636 26.4843 41.2416C26.7304 41.2759 23.0225 45.4757 22.8356 45.6171C18.0221 45.0202 11.6802 44.7218 2.05308 51.7897Z" fill="url(#paint25_radial_333_3594)"/>
<path style="mix-blend-mode:screen" d="M7.55923 37.8945C8.25757 36.8847 7.95599 36.5822 9.18979 35.3308C17.2173 30.7379 28.8387 32.8891 32.148 34.0112C32.385 34.0443 31.1664 37.2516 30.9663 37.3539C26.3114 35.886 17.5352 35.3876 7.55923 37.8945Z" fill="url(#paint26_radial_333_3594)"/>
<path style="mix-blend-mode:screen" d="M12.1143 28.221C13.0255 27.4177 10.5741 26.806 15.1182 25.3372C28.7908 23.3738 36.5533 28.4757 39.5148 30.2936C39.7286 30.4258 36.757 32.4117 36.5359 32.4646C29.0729 28.4311 20.5001 26.9415 12.1143 28.221Z" fill="url(#paint27_radial_333_3594)"/>
<path style="mix-blend-mode:screen" d="M16.0582 20.3976C18.876 18.4953 22.2953 17.7001 25.6614 18.1644C32.4244 19.1077 42.0156 23.8227 43.737 25.7374C43.8976 25.918 39.3037 28.5429 39.0786 28.558C34.0211 24.8475 28.008 21.0595 16.0582 20.3976Z" fill="url(#paint28_radial_333_3594)"/>
<path style="mix-blend-mode:screen" d="M22.1513 15.6185C23.4406 14.6353 28.8536 12.9992 33.323 13.8645C41.2384 15.4058 47.1865 20.0592 48.9183 21.9661C49.088 22.148 45.9746 24.1513 45.7404 24.1652C37.8309 17.8519 30.5481 15.9058 22.1513 15.6185Z" fill="url(#paint29_radial_333_3594)"/>
<path style="mix-blend-mode:screen" d="M29.6692 10.3497C30.3228 9.59418 34.6274 9.7759 37.046 9.88993C41.9286 10.1244 50.9056 16.112 53.3366 18.9352C53.6004 19.2418 49.938 21.3174 49.6724 21.2897C43.1959 16.2276 33.1826 10.542 29.6692 10.3497Z" fill="url(#paint30_radial_333_3594)"/>
</g>
<path style="mix-blend-mode:multiply" opacity="0.3" d="M80.3041 10.5269C77.2081 12.7375 72.8154 14.3857 68.1578 15.4015C51.3521 19.04 16.0744 42.3945 11.5319 77.6279C15.2963 41.644 50.9707 17.3772 68.1645 14.6208C72.4198 13.6967 76.4831 12.041 80.174 9.72724C80.9376 9.18247 83.296 11.2606 83.2229 12.4506C83.2091 12.5365 83.1755 12.6181 83.1249 12.6888C83.0742 12.7595 83.0079 12.8175 82.931 12.8582C82.8542 12.8989 82.769 12.9212 82.6821 12.9233C82.5952 12.9254 82.509 12.9073 82.4303 12.8704C81.9195 12.6702 81.4619 12.3545 81.093 11.948C80.7242 11.5415 80.4542 11.0552 80.3041 10.5269Z" fill="url(#paint31_linear_333_3594)"/>
<defs>
<linearGradient id="paint0_linear_333_3594" x1="-6.57523" y1="65.5327" x2="66.7574" y2="14.1492" gradientUnits="userSpaceOnUse">
<stop stop-color="#78BB00"/>
<stop offset="1" stop-color="#469B00"/>
</linearGradient>
<linearGradient id="paint1_linear_333_3594" x1="3.68004" y1="81.063" x2="87.8172" y2="-7.35055" gradientUnits="userSpaceOnUse">
<stop stop-color="#6FBD00"/>
<stop offset="1" stop-color="#90C900"/>
</linearGradient>
<linearGradient id="paint2_linear_333_3594" x1="49.1928" y1="61.9026" x2="29.3591" y2="44.9605" gradientUnits="userSpaceOnUse">
<stop stop-color="white"/>
<stop offset="1" stop-color="#377A00"/>
</linearGradient>
<linearGradient id="paint3_linear_333_3594" x1="-4.05027" y1="50.7353" x2="51.8746" y2="42.0062" gradientUnits="userSpaceOnUse">
<stop stop-color="white"/>
<stop offset="1" stop-color="#377A00"/>
</linearGradient>
<linearGradient id="paint4_linear_333_3594" x1="54.9536" y1="35.7717" x2="49.5013" y2="22.7622" gradientUnits="userSpaceOnUse">
<stop stop-color="#5FA200"/>
<stop offset="0.15" stop-color="#6DA800"/>
<stop offset="0.34" stop-color="#7CAE00"/>
<stop offset="1" stop-color="#5FA200"/>
</linearGradient>
<linearGradient id="paint5_linear_333_3594" x1="48.3428" y1="46.048" x2="45.2543" y2="27.6535" gradientUnits="userSpaceOnUse">
<stop stop-color="#5FA200"/>
<stop offset="0.15" stop-color="#6DA800"/>
<stop offset="0.34" stop-color="#7CAE00"/>
<stop offset="1" stop-color="#5FA200"/>
</linearGradient>
<linearGradient id="paint6_linear_333_3594" x1="44.1961" y1="49.8025" x2="38.6996" y2="31.9509" gradientUnits="userSpaceOnUse">
<stop stop-color="#5FA200"/>
<stop offset="0.15" stop-color="#6DA800"/>
<stop offset="0.34" stop-color="#7CAE00"/>
<stop offset="1" stop-color="#5FA200"/>
</linearGradient>
<linearGradient id="paint7_linear_333_3594" x1="36.7887" y1="55.5255" x2="28.1011" y2="40.8748" gradientUnits="userSpaceOnUse">
<stop stop-color="#5FA200"/>
<stop offset="0.15" stop-color="#6DA800"/>
<stop offset="0.34" stop-color="#7CAE00"/>
<stop offset="1" stop-color="#5FA200"/>
</linearGradient>
<linearGradient id="paint8_linear_333_3594" x1="32.4999" y1="58.2283" x2="26.2926" y2="43.3432" gradientUnits="userSpaceOnUse">
<stop stop-color="#5FA200"/>
<stop offset="0.15" stop-color="#6DA800"/>
<stop offset="0.34" stop-color="#7CAE00"/>
<stop offset="1" stop-color="#5FA200"/>
</linearGradient>
<linearGradient id="paint9_linear_333_3594" x1="29.1071" y1="62.7179" x2="23.3863" y2="49.861" gradientUnits="userSpaceOnUse">
<stop stop-color="#5FA200"/>
<stop offset="0.15" stop-color="#6DA800"/>
<stop offset="0.34" stop-color="#7CAE00"/>
<stop offset="1" stop-color="#5FA200"/>
</linearGradient>
<linearGradient id="paint10_linear_333_3594" x1="24.0377" y1="68.2349" x2="17.5024" y2="57.8247" gradientUnits="userSpaceOnUse">
<stop stop-color="#5FA200"/>
<stop offset="0.15" stop-color="#6DA800"/>
<stop offset="0.34" stop-color="#7CAE00"/>
<stop offset="1" stop-color="#5FA200"/>
</linearGradient>
<linearGradient id="paint11_linear_333_3594" x1="20.8295" y1="71.9497" x2="15.4348" y2="63.3685" gradientUnits="userSpaceOnUse">
<stop stop-color="#5FA200"/>
<stop offset="0.15" stop-color="#6DA800"/>
<stop offset="0.34" stop-color="#7CAE00"/>
<stop offset="1" stop-color="#5FA200"/>
</linearGradient>
<linearGradient id="paint12_linear_333_3594" x1="59.2522" y1="34.0356" x2="56.0447" y2="21.1787" gradientUnits="userSpaceOnUse">
<stop stop-color="#5FA200"/>
<stop offset="0.15" stop-color="#6DA800"/>
<stop offset="0.34" stop-color="#7CAE00"/>
<stop offset="1" stop-color="#5FA200"/>
</linearGradient>
<linearGradient id="paint13_linear_333_3594" x1="34.6402" y1="10.3315" x2="49.4315" y2="21.4405" gradientUnits="userSpaceOnUse">
<stop stop-color="#5FA200"/>
<stop offset="0.15" stop-color="#6DA800"/>
<stop offset="0.34" stop-color="#7CAE00"/>
<stop offset="1" stop-color="#5FA200"/>
</linearGradient>
<linearGradient id="paint14_linear_333_3594" x1="26.4121" y1="15.6418" x2="45.0697" y2="24.8267" gradientUnits="userSpaceOnUse">
<stop stop-color="#5FA200"/>
<stop offset="0.15" stop-color="#6DA800"/>
<stop offset="0.34" stop-color="#7CAE00"/>
<stop offset="1" stop-color="#5FA200"/>
</linearGradient>
<linearGradient id="paint15_linear_333_3594" x1="21.0928" y1="18.3765" x2="37.3563" y2="29.0307" gradientUnits="userSpaceOnUse">
<stop stop-color="#5FA200"/>
<stop offset="0.15" stop-color="#6DA800"/>
<stop offset="0.34" stop-color="#7CAE00"/>
<stop offset="1" stop-color="#5FA200"/>
</linearGradient>
<linearGradient id="paint16_linear_333_3594" x1="10.532" y1="31.5607" x2="28.4833" y2="39.0421" gradientUnits="userSpaceOnUse">
<stop stop-color="#5FA200"/>
<stop offset="0.15" stop-color="#6DA800"/>
<stop offset="0.34" stop-color="#7CAE00"/>
<stop offset="1" stop-color="#5FA200"/>
</linearGradient>
<linearGradient id="paint17_linear_333_3594" x1="16.5344" y1="24.3404" x2="32.352" y2="36.1449" gradientUnits="userSpaceOnUse">
<stop stop-color="#5FA200"/>
<stop offset="0.15" stop-color="#6DA800"/>
<stop offset="0.34" stop-color="#7CAE00"/>
<stop offset="1" stop-color="#5FA200"/>
</linearGradient>
<linearGradient id="paint18_linear_333_3594" x1="6.18203" y1="45.3963" x2="23.2602" y2="47.3905" gradientUnits="userSpaceOnUse">
<stop stop-color="#5FA200"/>
<stop offset="0.15" stop-color="#6DA800"/>
<stop offset="0.34" stop-color="#7CAE00"/>
<stop offset="1" stop-color="#5FA200"/>
</linearGradient>
<linearGradient id="paint19_linear_333_3594" x1="6.30462" y1="56.8135" x2="20.3673" y2="56.1386" gradientUnits="userSpaceOnUse">
<stop stop-color="#5FA200"/>
<stop offset="0.15" stop-color="#6DA800"/>
<stop offset="0.34" stop-color="#7CAE00"/>
<stop offset="1" stop-color="#5FA200"/>
</linearGradient>
<linearGradient id="paint20_linear_333_3594" x1="5.79602" y1="63.6125" x2="16.8567" y2="61.3477" gradientUnits="userSpaceOnUse">
<stop stop-color="#5FA200"/>
<stop offset="0.15" stop-color="#6DA800"/>
<stop offset="0.34" stop-color="#7CAE00"/>
<stop offset="1" stop-color="#5FA200"/>
</linearGradient>
<linearGradient id="paint21_linear_333_3594" x1="44.4415" y1="9.49441" x2="56.2348" y2="19.28" gradientUnits="userSpaceOnUse">
<stop stop-color="#5FA200"/>
<stop offset="0.15" stop-color="#6DA800"/>
<stop offset="0.34" stop-color="#7CAE00"/>
<stop offset="1" stop-color="#5FA200"/>
</linearGradient>
<radialGradient id="paint22_radial_333_3594" cx="0" cy="0" r="1" gradientUnits="userSpaceOnUse" gradientTransform="translate(8.80063 66.6048) rotate(163.137) scale(10.8123 10.8213)">
<stop stop-color="#7CAE00"/>
<stop offset="1"/>
</radialGradient>
<linearGradient id="paint23_linear_333_3594" x1="8.94632" y1="70.8757" x2="14.1934" y2="68.5086" gradientUnits="userSpaceOnUse">
<stop stop-color="#7CAE00"/>
<stop offset="1"/>
</linearGradient>
<radialGradient id="paint24_radial_333_3594" cx="0" cy="0" r="1" gradientUnits="userSpaceOnUse" gradientTransform="translate(7.39775 58.1172) rotate(172.917) scale(10.8322 10.8443)">
<stop stop-color="#7CAE00"/>
<stop offset="1"/>
</radialGradient>
<radialGradient id="paint25_radial_333_3594" cx="0" cy="0" r="1" gradientUnits="userSpaceOnUse" gradientTransform="translate(9.68409 50.4157) rotate(-156.887) scale(16.8702 16.889)">
<stop stop-color="#7CAE00"/>
<stop offset="1"/>
</radialGradient>
<radialGradient id="paint26_radial_333_3594" cx="0" cy="0" r="1" gradientUnits="userSpaceOnUse" gradientTransform="translate(13.6545 37.0176) rotate(-145.977) scale(15.4184 15.4306)">
<stop stop-color="#7CAE00"/>
<stop offset="1"/>
</radialGradient>
<radialGradient id="paint27_radial_333_3594" cx="0" cy="0" r="1" gradientUnits="userSpaceOnUse" gradientTransform="translate(18.9399 28.0732) rotate(-133.096) scale(16.9403 16.9448)">
<stop stop-color="#7CAE00"/>
<stop offset="1"/>
</radialGradient>
<radialGradient id="paint28_radial_333_3594" cx="0" cy="0" r="1" gradientUnits="userSpaceOnUse" gradientTransform="translate(23.0115 21.7487) rotate(-121.756) scale(18.1935 18.1892)">
<stop stop-color="#7CAE00"/>
<stop offset="1"/>
</radialGradient>
<radialGradient id="paint29_radial_333_3594" cx="0" cy="0" r="1" gradientUnits="userSpaceOnUse" gradientTransform="translate(30.1751 17.704) rotate(-121.756) scale(17.2437 17.2396)">
<stop stop-color="#7CAE00"/>
<stop offset="1"/>
</radialGradient>
<radialGradient id="paint30_radial_333_3594" cx="0" cy="0" r="1" gradientUnits="userSpaceOnUse" gradientTransform="translate(36.3141 13.2149) rotate(-122.563) scale(14.3584 14.3555)">
<stop stop-color="#7CAE00"/>
<stop offset="1"/>
</radialGradient>
<linearGradient id="paint31_linear_333_3594" x1="47.5904" y1="40.1042" x2="79.0578" y2="22.9638" gradientUnits="userSpaceOnUse">
<stop stop-color="white"/>
<stop offset="0.05" stop-color="#E7EEE3"/>
<stop offset="0.15" stop-color="#BACFB0"/>
<stop offset="0.25" stop-color="#92B482"/>
<stop offset="0.36" stop-color="#719D5C"/>
<stop offset="0.47" stop-color="#568A3D"/>
<stop offset="0.59" stop-color="#417B25"/>
<stop offset="0.71" stop-color="#327113"/>
<stop offset="0.84" stop-color="#296B09"/>
<stop offset="1" stop-color="#266906"/>
</linearGradient>
</defs>
</svg>
