<svg width="115" height="113" viewBox="0 0 115 113" fill="none" xmlns="http://www.w3.org/2000/svg">
<path d="M82.6493 48.062C82.667 40.2784 74.7291 30.6061 71.6316 27.8886C72.0449 29.3741 72.1663 30.926 71.9892 32.4585C69.2161 29.3808 64.2706 24.2304 61.4521 22.4891C61.9406 24.2514 62.0074 26.1045 61.6472 27.8985C58.859 25.561 46.3499 15.3378 46.0489 14.6753C46.2514 16.2297 46.2915 17.8012 46.1688 19.3644C43.555 17.0101 39.4412 11.4346 42.3442 4.32165C34.3639 4.4694 27.6182 14.5145 27.5319 21.265C27.5291 21.6539 25.8588 19.1201 25.7944 19.4971C23.9516 29.5801 26.8073 37.8062 27.3911 38.0421C26.5385 37.7671 25.6867 37.5072 24.8557 37.2082C24.8896 43.0376 27.2818 51.4407 31.0449 55.8304C29.7808 56.0982 28.4795 56.1387 27.2019 55.9499C29.4182 63.5321 33.9222 70.242 40.0984 75.1625C38.557 75.9485 36.9227 76.537 35.2344 76.9138C40.4009 84.2783 53.5118 89.0272 62.1663 87.6165C65.7569 87.0378 68.7792 85.9328 71.2976 83.185C72.2852 82.0885 74.1552 82.7289 75.2825 81.9757C75.975 81.5121 75.8534 80.7792 76.2812 80.2077C77.0353 79.2972 78.035 78.6225 79.1612 78.2641C80.5805 77.6617 81.7985 76.6663 82.6718 75.3952C85.7358 71.4855 87.5907 66.7665 88.0082 61.8192C88.2837 55.7633 87.204 49.724 84.848 44.142C84.2449 45.5172 83.5085 46.8302 82.6493 48.062Z" fill="url(#paint0_linear_333_9437)"/>
<path d="M86.5859 95.8681C87.7067 96.7616 89.7354 94.863 88.8428 93.8126C77.8379 84.1836 67.7628 73.5412 58.7503 62.0254C51.3994 52.5049 41.5895 37.2757 36.6976 25.1859C34.3211 19.3051 34.8536 8.94073 41.8551 4.44655C39.558 5.27696 31.5454 11.8904 35.7231 25.9464C38.2617 34.3798 45.995 47.7675 53.105 58.0859C62.7517 71.945 73.9885 84.6253 86.5859 95.8681Z" fill="url(#paint1_linear_333_9437)"/>
<g style="mix-blend-mode:multiply" opacity="0.7">
<path opacity="0.8" d="M53.1289 58.1074C45.9949 47.7675 38.2217 34.3438 35.747 25.968C31.838 12.8353 38.5985 6.18142 41.3652 4.70112L42.0457 4.29924C34.2251 4.73582 27.6893 14.564 27.6055 21.2153C27.6027 21.6042 25.9323 19.0704 25.8679 19.4473C24.0252 29.5304 26.8809 37.7565 27.4647 37.9924C26.6121 37.7173 25.7603 37.4575 24.9293 37.1584C24.9632 42.9879 27.3554 51.391 31.1184 55.7807C29.8544 56.0485 28.5531 56.089 27.2755 55.9001C29.4918 63.4824 33.9957 70.1922 40.172 75.1128C38.6305 75.8988 36.9963 76.4872 35.308 76.8641C40.4745 84.2286 53.5854 88.9775 62.2398 87.5668C65.8305 86.9881 68.8528 85.8831 71.3711 83.1353C71.7957 82.7244 72.3544 82.4809 72.944 82.4499C65.7615 74.8238 59.1393 66.6885 53.1289 58.1074Z" fill="url(#paint2_linear_333_9437)"/>
<path opacity="0.6" d="M82.6492 48.0618C82.667 40.2783 74.729 30.6059 71.6315 27.8885C72.0448 29.374 72.1662 30.9259 71.9891 32.4583C69.2161 29.3807 64.2705 24.2303 61.452 22.489C61.9405 24.2513 62.0073 26.1043 61.6472 27.8983C58.8589 25.5609 46.3498 15.3376 46.0488 14.6751C46.2513 16.2296 46.2915 17.8011 46.1687 19.3643C43.5549 17.01 39.4411 11.4345 42.3441 4.32152L42.0905 4.28158L41.3763 4.76909C34.8099 9.4232 34.3665 19.4474 36.6904 25.1939C41.5822 37.2836 51.4033 52.5809 58.743 62.0333C64.0429 68.8173 69.7184 75.299 75.743 81.4481C75.8902 81.0177 76.0726 80.6001 76.2884 80.1996C77.0424 79.2891 78.0422 78.6143 79.1683 78.256C80.5876 77.6535 81.8056 76.6581 82.6789 75.3871C85.7429 71.4774 87.5979 66.7584 88.0154 61.8111C88.2908 55.7552 87.2111 49.7159 84.8552 44.1339C84.2502 45.5122 83.5114 46.8278 82.6492 48.0618Z" fill="url(#paint3_linear_333_9437)"/>
<path opacity="0.8" d="M82.6492 48.0618C82.667 40.2783 74.729 30.6059 71.6315 27.8885C72.0448 29.374 72.1662 30.9259 71.9891 32.4583C69.2161 29.3807 64.2705 24.2303 61.452 22.489C61.9405 24.2513 62.0073 26.1043 61.6472 27.8983C58.8589 25.5609 46.3498 15.3376 46.0488 14.6751C46.2513 16.2296 46.2915 17.8011 46.1687 19.3643C43.5549 17.01 39.4411 11.4345 42.3441 4.32152L42.0905 4.28158L41.3763 4.76909C34.8099 9.4232 34.3665 19.4474 36.6904 25.1939C41.5822 37.2836 51.4033 52.5809 58.743 62.0333C64.0429 68.8173 69.7184 75.299 75.743 81.4481C75.8902 81.0177 76.0726 80.6001 76.2884 80.1996C77.0424 79.2891 78.0422 78.6143 79.1683 78.256C80.5876 77.6535 81.8056 76.6581 82.6789 75.3871C85.7429 71.4774 87.5979 66.7584 88.0154 61.8111C88.2908 55.7552 87.2111 49.7159 84.8552 44.1339C84.2502 45.5122 83.5114 46.8278 82.6492 48.0618Z" fill="url(#paint4_linear_333_9437)"/>
</g>
<mask id="mask0_333_9437" style="mask-type:luminance" maskUnits="userSpaceOnUse" x="24" y="4" width="65" height="84">
<path d="M82.6493 48.062C82.667 40.2784 74.7291 30.6061 71.6316 27.8886C72.0449 29.3741 72.1663 30.926 71.9892 32.4585C69.2161 29.3808 64.2706 24.2304 61.4521 22.4891C61.9406 24.2514 62.0074 26.1045 61.6472 27.8985C58.859 25.561 46.3499 15.3378 46.0489 14.6753C46.2514 16.2297 46.2915 17.8012 46.1688 19.3644C43.555 17.0101 39.4412 11.4346 42.3442 4.32165C34.3639 4.4694 27.6182 14.5145 27.5319 21.265C27.5291 21.6539 25.8588 19.1201 25.7944 19.4971C23.9516 29.5801 26.8073 37.8062 27.3911 38.0421C26.5385 37.7671 25.6867 37.5072 24.8557 37.2082C24.8896 43.0376 27.2818 51.4407 31.0449 55.8304C29.7808 56.0982 28.4795 56.1387 27.2019 55.9499C29.4182 63.5321 33.9222 70.242 40.0984 75.1625C38.557 75.9485 36.9227 76.537 35.2344 76.9138C40.4009 84.2783 53.5118 89.0272 62.1663 87.6165C65.7569 87.0378 68.7792 85.9328 71.2976 83.185C72.2852 82.0885 74.1552 82.7289 75.2825 81.9757C75.975 81.5121 75.8534 80.7792 76.2812 80.2077C77.0353 79.2972 78.035 78.6225 79.1612 78.2641C80.5805 77.6617 81.7985 76.6663 82.6718 75.3952C85.7358 71.4855 87.5907 66.7665 88.0082 61.8192C88.2837 55.7633 87.204 49.724 84.848 44.142C84.2449 45.5172 83.5085 46.8302 82.6493 48.062Z" fill="white"/>
</mask>
<g mask="url(#mask0_333_9437)">
<g style="mix-blend-mode:screen" opacity="0.7">
<path opacity="0.6" d="M65.0032 71.2382C64.6554 70.258 63.5155 69.2893 64.0213 68.3097C76.6655 43.6145 74.3926 39.5957 73.8251 35.9822C78.5416 47.479 64.1883 65.4881 66.098 72.5142C65.828 72.4025 65.5883 72.2288 65.3981 72.0071C65.2079 71.7854 65.0726 71.522 65.0032 71.2382Z" fill="url(#paint5_linear_333_9437)"/>
<path opacity="0.6" d="M69.5329 73.796C68.9417 74.4523 69.6926 75.5636 69.8069 76.4494C69.8131 76.7013 69.8742 76.9489 69.9859 77.1746C70.0976 77.4004 70.2572 77.5991 70.4536 77.7567C70.1553 71.5297 84.6711 60.3646 82.9188 49.74C82.7355 52.8368 83.8268 56.7047 69.5329 73.796Z" fill="url(#paint6_linear_333_9437)"/>
<path opacity="0.6" d="M58.5075 61.0094C58.2002 61.8489 59.2611 62.616 59.6603 63.4105C59.7596 63.6428 59.9083 63.8508 60.096 64.0198C60.2837 64.1889 60.506 64.3151 60.7474 64.3896C58.3548 58.6392 68.7656 39.5581 63.5332 30.1771C64.3902 33.196 66.1327 40.0861 58.5075 61.0094Z" fill="url(#paint7_linear_333_9437)"/>
<path opacity="0.6" d="M48.6156 49.2146C48.9535 49.7075 49.2834 50.1931 49.6141 50.6939C50.9692 42.5347 56.6585 29.001 52.5137 21.6435C53.3205 24.4287 54.9284 30.7771 48.6156 49.2146Z" fill="url(#paint8_linear_333_9437)"/>
<path opacity="0.6" d="M41.5188 37.6759C41.7265 38.0079 42.5655 39.0536 42.7731 39.3856C43.8779 34.9442 49.0979 24.8731 46.6133 19.8517C46.9929 21.7448 47.6966 25.9305 41.5188 37.6759Z" fill="url(#paint9_linear_333_9437)"/>
<path opacity="0.3" d="M38.5425 29.9211C38.2183 30.1364 38.0027 28.913 37.6473 29.1147C37.6343 25.4642 37.1803 13.5589 40.7918 9.09924C39.2461 12.0852 38.183 18.8112 38.5425 29.9211Z" fill="url(#paint10_linear_333_9437)"/>
</g>
<g style="mix-blend-mode:screen" opacity="0.7">
<path opacity="0.7" d="M57.9529 64.1485C38.5897 71.1794 35.9182 68.1497 33.2064 66.8525C39.4972 72.5187 50.9991 67.3519 58.9364 65.4838C58.5692 65.069 58.2401 64.6222 57.9529 64.1485Z" fill="url(#paint11_linear_333_9437)"/>
<path opacity="0.7" d="M63.925 70.1368C63.763 69.8023 63.5937 69.4759 63.3924 69.1206C62.4356 69.0417 61.6723 69.0211 61.3793 69.25C52.5607 76.0509 42.0306 77.7437 38.9507 77.2892C47.0923 80.4182 57.7772 73.1527 64.7545 71.1448C64.4539 70.8294 64.1767 70.4925 63.925 70.1368Z" fill="url(#paint12_linear_333_9437)"/>
<path opacity="0.7" d="M69.2763 77.5372C69.0505 77.2019 68.849 76.8509 68.6733 76.4867C68.4887 76.4826 68.3055 76.521 68.138 76.5989C58.9826 82.6324 48.2162 83.7356 45.0845 83.1619C52.902 86.3614 63.2059 80.7244 70.3791 78.8205C69.968 78.4322 69.5984 78.0021 69.2763 77.5372Z" fill="url(#paint13_linear_333_9437)"/>
<path opacity="0.7" d="M55.8657 60.181L55.5008 59.4609C39.1697 60.6984 33.665 57.7119 31.2861 56.3666C37.2652 61.7519 47.6314 61.4627 56.9118 61.3986C56.5278 61.0245 56.1778 60.617 55.8657 60.181Z" fill="url(#paint14_linear_333_9437)"/>
<path opacity="0.7" d="M49.1725 49.9628C49.48 50.4573 49.7555 50.9229 50.1182 51.4525C43.0496 49.029 30.4381 47.9049 25.471 41.1549C27.5604 43.0948 32.3478 47.2474 49.1725 49.9628Z" fill="url(#paint15_linear_333_9437)"/>
<path opacity="0.7" d="M41.9241 38.7369C42.0125 39.1209 42.7543 40.4995 42.8667 40.9052C38.9375 38.6128 27.5246 35.1614 25.7324 29.8213C26.738 31.4374 29.2403 34.8801 41.9241 38.7369Z" fill="url(#paint16_linear_333_9437)"/>
<path opacity="0.7" d="M38.9707 31.4231C32.2449 27.0758 28.4745 23.5783 27.0473 21.1765C28.531 25.4123 35.215 29.9829 39.4734 32.7457C39.2634 32.3222 39.095 31.8792 38.9707 31.4231Z" fill="url(#paint17_linear_333_9437)"/>
</g>
</g>
<path opacity="0.6" d="M86.5859 95.8681C87.7067 96.7616 89.7354 94.863 88.8428 93.8126C77.8379 84.1836 67.7628 73.5412 58.7503 62.0254C51.3994 52.5049 41.5895 37.2757 36.6976 25.1859C34.3211 19.3051 34.8536 8.94073 41.8551 4.44655C39.558 5.27696 31.5454 11.8904 35.7231 25.9464C38.2617 34.3798 45.995 47.7675 53.105 58.0859C62.7517 71.945 73.9885 84.6253 86.5859 95.8681Z" fill="url(#paint18_linear_333_9437)"/>
<mask id="mask1_333_9437" style="mask-type:luminance" maskUnits="userSpaceOnUse" x="24" y="4" width="65" height="84">
<path d="M82.6493 48.062C82.667 40.2784 74.7291 30.6061 71.6316 27.8886C72.0449 29.3741 72.1663 30.926 71.9892 32.4585C69.2161 29.3808 64.2706 24.2304 61.4521 22.4891C61.9406 24.2514 62.0074 26.1045 61.6472 27.8985C58.859 25.561 46.3499 15.3378 46.0489 14.6753C46.2514 16.2297 46.2915 17.8012 46.1688 19.3644C43.555 17.0101 39.4412 11.4346 42.3442 4.32165C34.3639 4.4694 27.6182 14.5145 27.5319 21.265C27.5291 21.6539 25.8588 19.1201 25.7944 19.4971C23.9516 29.5801 26.8073 37.8062 27.3911 38.0421C26.5385 37.7671 25.6867 37.5072 24.8557 37.2082C24.8896 43.0376 27.2818 51.4407 31.0449 55.8304C29.7808 56.0982 28.4795 56.1387 27.2019 55.9499C29.4182 63.5321 33.9222 70.242 40.0984 75.1625C38.557 75.9485 36.9227 76.537 35.2344 76.9138C40.4009 84.2783 53.5118 89.0272 62.1663 87.6165C65.7569 87.0378 68.7792 85.9328 71.2976 83.185C72.2852 82.0885 74.1552 82.7289 75.2825 81.9757C75.975 81.5121 75.8534 80.7792 76.2812 80.2077C77.0353 79.2972 78.035 78.6225 79.1612 78.2641C80.5805 77.6617 81.7985 76.6663 82.6718 75.3952C85.7358 71.4855 87.5907 66.7665 88.0082 61.8192C88.2837 55.7633 87.204 49.724 84.848 44.142C84.2449 45.5172 83.5085 46.8302 82.6493 48.062Z" fill="white"/>
</mask>
<g mask="url(#mask1_333_9437)">
<path style="mix-blend-mode:screen" opacity="0.8" d="M51.8576 19.2694C52.1889 20.6697 52.4747 22.0724 52.7084 23.5007C52.9731 24.9933 53.1173 26.5049 53.1397 28.0209C53.1149 29.5993 52.9873 31.1745 52.758 32.7366C52.2498 36.6281 49.6395 45.4254 49.7674 46.28C49.8953 47.1346 53.6095 52.3501 54.3632 53.8119C56.6161 51.6803 59.1185 43.5976 59.9626 37.5007C60.3642 34.499 59.6137 28.3721 58.8455 25.4475C58.19 22.4539 56.3991 19.8327 53.8494 18.135C53.1961 17.7351 52.1714 17.5225 51.8331 18.2036C51.7168 18.551 51.7255 18.928 51.8576 19.2694Z" fill="url(#paint19_radial_333_9437)"/>
<path style="mix-blend-mode:screen" opacity="0.4" d="M44.928 7.86684C45.2593 9.26711 45.4312 13.1913 45.853 14.5715C48.9785 24.9253 42.6803 34.0396 42.8082 34.8942C42.9361 35.7488 46.6598 41.0019 47.4192 42.4253C49.6721 40.2937 52.501 24.5026 47.0752 14.9184C45.5906 12.291 49.5096 8.32574 46.9293 6.77004C46.2761 6.37011 45.2514 6.15753 44.913 6.83859C44.7935 7.17203 44.7988 7.53733 44.928 7.86684Z" fill="url(#paint20_radial_333_9437)"/>
<path style="mix-blend-mode:screen" opacity="0.8" d="M61.3949 22.1187C68.0691 34.48 60.6257 55.2336 60.7616 56.0954C61.1954 57.8143 61.8338 59.4746 62.663 61.041C64.9151 58.8942 73.8003 34.3217 67.6049 26.9583C65.808 25.0223 63.7112 23.3883 61.3949 22.1187Z" fill="url(#paint21_radial_333_9437)"/>
<path style="mix-blend-mode:screen" opacity="0.7" d="M71.4998 27.6975C79.4629 41.5533 66.2935 63.6007 66.3622 64.4889C66.6359 66.2717 67.1748 68.0032 67.961 69.6258C71.0234 66.9331 85.6704 43.5345 77.036 32.6261C75.4299 30.7326 73.5664 29.0736 71.4998 27.6975Z" fill="url(#paint22_radial_333_9437)"/>
<path style="mix-blend-mode:screen" opacity="0.6" d="M84.0896 36.5292C86.6953 44.3417 83.4319 53.3336 79.0813 60.7518C76.1917 65.7603 72.7614 69.8902 70.7499 73.0075C70.2201 73.8207 73.9623 76.7708 74.3646 78.3655C77.9391 76.4385 93.594 57.804 87.6713 45.2352C86.3788 42.4909 83.966 36.2004 84.0896 36.5292Z" fill="url(#paint23_radial_333_9437)"/>
</g>
<g style="mix-blend-mode:multiply" opacity="0.2">
<path opacity="0.8" d="M27.6895 37.1801C27.7946 37.2064 27.89 37.2622 27.9646 37.3409C27.4508 36.6896 25.196 29.9181 26.3933 21.2108C26.8903 21.8324 27.0989 22.0348 27.5269 22.0579L27.9166 22.0754L28.3924 21.5472L28.4055 21.2111C28.4509 17.6566 30.431 13.1917 33.466 9.82207C34.7132 8.43739 38.4705 5.32681 41.5621 4.53059L42.0904 4.28159C34.2699 4.71817 27.734 14.5464 27.6503 21.1977C27.6475 21.5866 25.9771 19.0528 25.9127 19.4297C24.0699 29.5127 26.9176 37.7316 27.5094 37.9747L27.6895 37.1801Z" fill="url(#paint24_linear_333_9437)"/>
<path opacity="0.8" d="M62.0391 86.7771C53.7544 88.1148 41.8377 83.6153 36.6373 77.3655C37.9807 77.0049 39.2811 76.4991 40.5153 75.8569L41.6113 75.2348L40.604 74.4725C34.9142 69.8892 30.6513 63.7764 28.3155 56.8513C29.3455 56.9581 30.3867 56.8616 31.3801 56.5672L32.4095 56.1316L31.7111 55.2996C28.2789 51.2659 26.1265 43.8182 25.7522 38.3345L27.2207 38.7294L27.4624 37.9468C26.6098 37.6717 25.758 37.4119 24.927 37.1128C24.9609 42.9423 27.3531 51.3454 31.1161 55.7351C29.8521 56.0029 28.5508 56.0434 27.2732 55.8545C29.4895 63.4368 33.9934 70.1466 40.1697 75.0671C38.6282 75.8532 36.994 76.4416 35.3057 76.8185C40.4722 84.183 53.5831 88.9319 62.2375 87.5212C65.2809 87.1905 68.1549 85.9493 70.4838 83.9597C67.8762 84.8295 65.0479 86.2978 62.0391 86.7771Z" fill="url(#paint25_linear_333_9437)"/>
</g>
<defs>
<linearGradient id="paint0_linear_333_9437" x1="78.55" y1="78.2354" x2="21.0872" y2="19.3209" gradientUnits="userSpaceOnUse">
<stop stop-color="#88C718"/>
<stop offset="0.26" stop-color="#83C418"/>
<stop offset="0.59" stop-color="#74BA16"/>
<stop offset="0.95" stop-color="#5AAA14"/>
<stop offset="1" stop-color="#56A714"/>
</linearGradient>
<linearGradient id="paint1_linear_333_9437" x1="81.1995" y1="80.4302" x2="49.0188" y2="33.5675" gradientUnits="userSpaceOnUse">
<stop stop-color="#6FBD00"/>
<stop offset="1" stop-color="#90C900"/>
</linearGradient>
<linearGradient id="paint2_linear_333_9437" x1="57.174" y1="88.6564" x2="31.9642" y2="20.9477" gradientUnits="userSpaceOnUse">
<stop stop-color="white"/>
<stop offset="1" stop-color="#377A00"/>
</linearGradient>
<linearGradient id="paint3_linear_333_9437" x1="87.6139" y1="87.2322" x2="57.3484" y2="28.5165" gradientUnits="userSpaceOnUse">
<stop stop-color="white"/>
<stop offset="1" stop-color="#377A00"/>
</linearGradient>
<linearGradient id="paint4_linear_333_9437" x1="81.8669" y1="29.9588" x2="49.4528" y2="48.1594" gradientUnits="userSpaceOnUse">
<stop stop-color="white"/>
<stop offset="1" stop-color="#377A00"/>
</linearGradient>
<linearGradient id="paint5_linear_333_9437" x1="73.724" y1="38.0356" x2="66.9973" y2="66.1432" gradientUnits="userSpaceOnUse">
<stop stop-color="#5FA200"/>
<stop offset="0.15" stop-color="#6DA800"/>
<stop offset="0.34" stop-color="#7CAE00"/>
<stop offset="1" stop-color="#5FA200"/>
</linearGradient>
<linearGradient id="paint6_linear_333_9437" x1="79.0189" y1="50.8453" x2="74.065" y2="73.4588" gradientUnits="userSpaceOnUse">
<stop stop-color="#5FA200"/>
<stop offset="0.15" stop-color="#6DA800"/>
<stop offset="0.34" stop-color="#7CAE00"/>
<stop offset="1" stop-color="#5FA200"/>
</linearGradient>
<linearGradient id="paint7_linear_333_9437" x1="60.0473" y1="32.4564" x2="63.5171" y2="58.2139" gradientUnits="userSpaceOnUse">
<stop stop-color="#5FA200"/>
<stop offset="0.15" stop-color="#6DA800"/>
<stop offset="0.34" stop-color="#7CAE00"/>
<stop offset="1" stop-color="#5FA200"/>
</linearGradient>
<linearGradient id="paint8_linear_333_9437" x1="53.8113" y1="23.9474" x2="49.0337" y2="46.7832" gradientUnits="userSpaceOnUse">
<stop stop-color="#5FA200"/>
<stop offset="0.15" stop-color="#6DA800"/>
<stop offset="0.34" stop-color="#7CAE00"/>
<stop offset="1" stop-color="#5FA200"/>
</linearGradient>
<linearGradient id="paint9_linear_333_9437" x1="46.3659" y1="21.3961" x2="40.2581" y2="35.7568" gradientUnits="userSpaceOnUse">
<stop stop-color="#5FA200"/>
<stop offset="0.15" stop-color="#6DA800"/>
<stop offset="0.34" stop-color="#7CAE00"/>
<stop offset="1" stop-color="#5FA200"/>
</linearGradient>
<linearGradient id="paint10_linear_333_9437" x1="41.4319" y1="10.4292" x2="41.1103" y2="27.2442" gradientUnits="userSpaceOnUse">
<stop stop-color="#5FA200"/>
<stop offset="0.15" stop-color="#6DA800"/>
<stop offset="0.34" stop-color="#7CAE00"/>
<stop offset="1" stop-color="#5FA200"/>
</linearGradient>
<linearGradient id="paint11_linear_333_9437" x1="33.6232" y1="68.9092" x2="59.2938" y2="64.4995" gradientUnits="userSpaceOnUse">
<stop stop-color="#5FA200"/>
<stop offset="0.15" stop-color="#6DA800"/>
<stop offset="0.34" stop-color="#7CAE00"/>
<stop offset="1" stop-color="#5FA200"/>
</linearGradient>
<linearGradient id="paint12_linear_333_9437" x1="40.9251" y1="74.6342" x2="64.1028" y2="74.3802" gradientUnits="userSpaceOnUse">
<stop stop-color="#5FA200"/>
<stop offset="0.15" stop-color="#6DA800"/>
<stop offset="0.34" stop-color="#7CAE00"/>
<stop offset="1" stop-color="#5FA200"/>
</linearGradient>
<linearGradient id="paint13_linear_333_9437" x1="46.5978" y1="80.6738" x2="70.3093" y2="80.9225" gradientUnits="userSpaceOnUse">
<stop stop-color="#5FA200"/>
<stop offset="0.15" stop-color="#6DA800"/>
<stop offset="0.34" stop-color="#7CAE00"/>
<stop offset="1" stop-color="#5FA200"/>
</linearGradient>
<linearGradient id="paint14_linear_333_9437" x1="31.8293" y1="58.0302" x2="54.4201" y2="60.6627" gradientUnits="userSpaceOnUse">
<stop stop-color="#5FA200"/>
<stop offset="0.15" stop-color="#6DA800"/>
<stop offset="0.34" stop-color="#7CAE00"/>
<stop offset="1" stop-color="#5FA200"/>
</linearGradient>
<linearGradient id="paint15_linear_333_9437" x1="26.5007" y1="44.3996" x2="47.1975" y2="48.6335" gradientUnits="userSpaceOnUse">
<stop stop-color="#5FA200"/>
<stop offset="0.15" stop-color="#6DA800"/>
<stop offset="0.34" stop-color="#7CAE00"/>
<stop offset="1" stop-color="#5FA200"/>
</linearGradient>
<linearGradient id="paint16_linear_333_9437" x1="26.7481" y1="31.0338" x2="41.7265" y2="36.9527" gradientUnits="userSpaceOnUse">
<stop stop-color="#5FA200"/>
<stop offset="0.15" stop-color="#6DA800"/>
<stop offset="0.34" stop-color="#7CAE00"/>
<stop offset="1" stop-color="#5FA200"/>
</linearGradient>
<linearGradient id="paint17_linear_333_9437" x1="26.8232" y1="22.2183" x2="39.5867" y2="32.0126" gradientUnits="userSpaceOnUse">
<stop stop-color="#5FA200"/>
<stop offset="0.15" stop-color="#6DA800"/>
<stop offset="0.34" stop-color="#7CAE00"/>
<stop offset="1" stop-color="#5FA200"/>
</linearGradient>
<linearGradient id="paint18_linear_333_9437" x1="86.1437" y1="88.5344" x2="37.6915" y2="16.8615" gradientUnits="userSpaceOnUse">
<stop stop-color="white"/>
<stop offset="0.02" stop-color="#FAFCF8"/>
<stop offset="0.23" stop-color="#C0D5AE"/>
<stop offset="0.44" stop-color="#8FB470"/>
<stop offset="0.62" stop-color="#699B40"/>
<stop offset="0.78" stop-color="#4E891D"/>
<stop offset="0.91" stop-color="#3D7E08"/>
<stop offset="1" stop-color="#377A00"/>
</linearGradient>
<radialGradient id="paint19_radial_333_9437" cx="0" cy="0" r="1" gradientUnits="userSpaceOnUse" gradientTransform="translate(51.2576 28.8597) rotate(-34.6074) scale(22.0271 22.0012)">
<stop stop-color="#7CAE00"/>
<stop offset="0.11" stop-color="#76A600"/>
<stop offset="0.29" stop-color="#669000"/>
<stop offset="0.5" stop-color="#4D6B00"/>
<stop offset="0.75" stop-color="#293900"/>
<stop offset="1"/>
</radialGradient>
<radialGradient id="paint20_radial_333_9437" cx="0" cy="0" r="1" gradientUnits="userSpaceOnUse" gradientTransform="translate(46.8105 21.04) rotate(-34.6074) scale(15.5106 15.4923)">
<stop stop-color="#7CAE00"/>
<stop offset="0.11" stop-color="#76A600"/>
<stop offset="0.29" stop-color="#669000"/>
<stop offset="0.5" stop-color="#4D6B00"/>
<stop offset="0.75" stop-color="#293900"/>
<stop offset="1"/>
</radialGradient>
<radialGradient id="paint21_radial_333_9437" cx="0" cy="0" r="1" gradientUnits="userSpaceOnUse" gradientTransform="translate(60.0303 34.0343) rotate(-34.6074) scale(23.6428 23.6149)">
<stop stop-color="#7CAE00"/>
<stop offset="0.11" stop-color="#76A600"/>
<stop offset="0.29" stop-color="#669000"/>
<stop offset="0.5" stop-color="#4D6B00"/>
<stop offset="0.75" stop-color="#293900"/>
<stop offset="1"/>
</radialGradient>
<radialGradient id="paint22_radial_333_9437" cx="0" cy="0" r="1" gradientUnits="userSpaceOnUse" gradientTransform="translate(67.9545 41.3925) rotate(-34.3935) scale(30.5844 23.1231)">
<stop stop-color="#7CAE00"/>
<stop offset="0.11" stop-color="#76A600"/>
<stop offset="0.29" stop-color="#669000"/>
<stop offset="0.5" stop-color="#4D6B00"/>
<stop offset="0.75" stop-color="#293900"/>
<stop offset="1"/>
</radialGradient>
<radialGradient id="paint23_radial_333_9437" cx="0" cy="0" r="1" gradientUnits="userSpaceOnUse" gradientTransform="translate(77.509 50.4572) rotate(-21.4556) scale(32.592 24.8386)">
<stop stop-color="#7CAE00"/>
<stop offset="0.11" stop-color="#76A600"/>
<stop offset="0.29" stop-color="#669000"/>
<stop offset="0.5" stop-color="#4D6B00"/>
<stop offset="0.75" stop-color="#293900"/>
<stop offset="1"/>
</radialGradient>
<linearGradient id="paint24_linear_333_9437" x1="36.5726" y1="19.9558" x2="18.7354" y2="27.7416" gradientUnits="userSpaceOnUse">
<stop stop-color="white"/>
<stop offset="1" stop-color="#377A00"/>
</linearGradient>
<linearGradient id="paint25_linear_333_9437" x1="53.3758" y1="58.4603" x2="35.5235" y2="66.2468" gradientUnits="userSpaceOnUse">
<stop stop-color="white"/>
<stop offset="1" stop-color="#377A00"/>
</linearGradient>
</defs>
</svg>
