<svg width="69" height="71" viewBox="0 0 69 71" fill="none" xmlns="http://www.w3.org/2000/svg">
<g filter="url(#filter0_f_333_9502)">
<path d="M36.9253 47.9693C40.744 45.8203 45.4887 40.5012 46.6562 38.0963L45.0305 38.8589C47.7316 37.2186 50.8821 32.5909 51.5619 30.5226C51.5619 30.5226 50.092 32.0861 49.93 31.9405C53.8967 27.2108 57.2396 21.9878 59.8757 16.4011C59.5453 16.6284 59.1984 16.8305 58.8379 17.0058C60.5124 14.9095 62.4595 11.6625 62.5404 11.5789C59.5466 9.96443 53.6652 8.07241 49.3282 8.98771L52.216 8.35848C47.9235 7.61085 42.5804 8.91902 40.2203 9.799C41.0315 9.19846 41.8252 8.71126 41.8252 8.71126C39.4267 8.99638 31.7482 12.433 29.9586 13.5811L31.6599 12.0615C24.0465 14.2306 17.5123 22.7538 17.5123 22.7538L17.8269 21.589C12.5104 26.0534 9.30472 34.4132 11.7889 40.7137C12.6629 42.9335 14.1757 44.2095 15.9076 45.933C18.11 48.129 17.5065 49.5421 17.6557 50.3024C17.7914 50.4265 17.6934 51.2489 18.117 51.234C18.501 51.2585 18.8705 51.3897 19.1842 51.6131C24.3641 54.8337 35.3382 52.9149 39.3312 46.8494L36.9253 47.9693Z" fill="url(#paint0_linear_333_9502)"/>
<path d="M62.1301 11.6752C43.554 15.4687 21.2847 44.7187 18.4935 48.5042C14.2896 54.1552 9.8528 57.5732 6.34256 58.7591C5.5098 59.0031 6.88111 61.8187 8.06145 61.238C14.9487 55.8736 16.6279 53.0593 22.9927 45.2252C27.5963 39.5619 31.2539 35.5556 35.0438 31.3755C40.4406 25.436 51.0203 15.5259 62.1301 11.6752Z" fill="url(#paint1_linear_333_9502)"/>
<path style="mix-blend-mode:multiply" opacity="0.4" d="M17.6161 49.6449C17.9094 49.2726 18.2027 48.9004 18.4935 48.5041C21.2697 44.7856 42.8698 16.3711 61.2703 11.8661C61.4755 11.8182 62.0593 11.6437 62.4732 11.5329C59.4629 9.92249 53.621 8.06273 49.317 8.96977L52.2048 8.34053C47.9123 7.59291 42.5692 8.90107 40.2091 9.78106C41.0203 9.18052 41.814 8.69332 41.814 8.69332C39.4155 8.97845 31.7369 12.415 29.9473 13.5632L31.6487 12.0436C24.0353 14.2127 17.501 22.7359 17.501 22.7359L17.8157 21.571C12.4992 26.0355 9.29349 34.3953 11.7777 40.6957C12.6516 42.9156 14.1645 44.1915 15.8964 45.9151C17.6284 47.6386 17.6128 48.8234 17.6161 49.6449Z" fill="url(#paint2_linear_333_9502)"/>
<path style="mix-blend-mode:screen" opacity="0.5" d="M21.1685 19.1383C17.4988 27.973 23.8994 42.1758 23.8994 42.1758C24.2233 42.5374 24.4967 41.418 24.4023 41.2484C21.5184 35.7967 19.7209 21.5432 21.1685 19.1383Z" fill="url(#paint3_linear_333_9502)"/>
<path style="mix-blend-mode:screen" opacity="0.5" d="M29.8748 13.9927C24.4931 20.178 27.6391 36.3039 27.8926 37.2595C27.8826 37.3042 28.5623 36.9791 28.4621 36.8004C27.7986 35.6595 26.6809 17.6648 29.8748 13.9927Z" fill="url(#paint4_linear_333_9502)"/>
<path style="mix-blend-mode:screen" opacity="0.5" d="M39.8386 10.011C34.4177 14.8039 35.2285 27.9693 35.2665 28.7751C35.2665 28.7751 35.9918 28.2805 35.9368 28.1431C35.5868 27.2363 35.8053 13.5738 39.8386 10.011Z" fill="url(#paint5_linear_333_9502)"/>
<path style="mix-blend-mode:screen" opacity="0.5" d="M50.3916 8.89695C46.3476 10.4171 44.5013 20.9488 44.6407 21.6835C44.6684 21.8382 45.55 21.4801 45.4968 21.3353C46.0365 14.3187 49.2264 9.34026 50.3916 8.89695Z" fill="url(#paint6_linear_333_9502)"/>
<path style="mix-blend-mode:screen" opacity="0.5" d="M14.3047 26.0009C11.9969 33.3026 19.4773 46.5037 19.8056 47.1945C19.8056 47.1945 20.3976 46.5997 20.3336 46.4682C19.1593 44.0249 13.3367 33.297 14.3047 26.0009Z" fill="url(#paint7_linear_333_9502)"/>
<path style="mix-blend-mode:screen" opacity="0.5" d="M45.7097 38.8857C38.0012 44.5122 25.155 42.2685 25.155 42.2685C24.7328 42.0335 25.7449 41.5091 25.936 41.5596C31.8798 43.1372 43.7149 40.8478 45.7097 38.8857Z" fill="url(#paint8_linear_333_9502)"/>
<path style="mix-blend-mode:screen" opacity="0.5" d="M51.0102 31.2518C47.4331 36.605 31.0299 35.443 30.0454 35.356C30.0009 35.3461 30.2117 34.6114 30.3986 34.7157C31.6353 35.1717 48.2993 35.3053 51.0102 31.2518Z" fill="url(#paint9_linear_333_9502)"/>
<path style="mix-blend-mode:screen" opacity="0.5" d="M55.9315 23.33C51.1133 28.7344 38.5851 27.3668 37.7859 27.3212C37.7488 27.313 38.2809 26.6032 38.4118 26.6793C39.325 27.0161 52.3414 27.3827 55.9315 23.33Z" fill="url(#paint10_linear_333_9502)"/>
<path style="mix-blend-mode:screen" opacity="0.5" d="M59.304 16.9066C57.2453 20.7229 46.6064 21.1063 45.8966 20.8695C45.7483 20.8364 46.2329 19.991 46.3613 20.0431C53.358 20.4957 58.7373 18.0152 59.304 16.9066Z" fill="url(#paint11_linear_333_9502)"/>
<path style="mix-blend-mode:screen" opacity="0.5" d="M36.9256 47.9696C31.634 51.1029 20.4405 48.6029 19.6976 48.4448C19.6976 48.4448 20.1233 47.7582 20.2642 47.7896C22.8835 48.3277 31.0249 49.9272 36.9256 47.9696Z" fill="url(#paint12_linear_333_9502)"/>
<mask id="mask0_333_9502" style="mask-type:luminance" maskUnits="userSpaceOnUse" x="10" y="8" width="53" height="46">
<path d="M36.9254 47.9695C40.7441 45.8206 45.4888 40.5014 46.6563 38.0965L45.0306 38.8591C47.7317 37.2188 50.8822 32.5911 51.562 30.5229C51.562 30.5229 50.0921 32.0864 49.9301 31.9407C53.8968 27.211 57.2397 21.9881 59.8759 16.4014C59.5454 16.6287 59.1985 16.8308 58.838 17.006C60.5125 14.9098 62.4596 11.6627 62.5405 11.5792C59.5468 9.96467 53.6654 8.07265 49.3283 8.98796L52.2162 8.35872C47.9237 7.61109 42.5805 8.91926 40.2204 9.79925C41.0316 9.1987 41.8253 8.7115 41.8253 8.7115C39.4268 8.99663 31.7483 12.4332 29.9587 13.5813L31.66 12.0617C24.0467 14.2309 17.5124 22.7541 17.5124 22.7541L17.827 21.5892C12.5106 26.0537 9.30484 34.4135 11.789 40.7139C12.663 42.9338 14.1758 44.2097 15.9078 45.9333C18.1101 48.1293 17.5066 49.5423 17.6558 50.3026C17.7916 50.4268 17.6935 51.2491 18.1171 51.2343C18.5011 51.2587 18.8707 51.3899 19.1843 51.6133C24.3642 54.834 35.3383 52.9151 39.3313 46.8496L36.9254 47.9695Z" fill="white"/>
</mask>
<g mask="url(#mask0_333_9502)">
<path style="mix-blend-mode:screen" d="M48.2137 20.0423C48.2137 20.0423 56.7105 20.3296 61.3455 15.0485C65.8129 9.92537 60.7859 17.1358 60.7859 17.1358C60.7859 17.1358 55.3702 25.8775 44.5512 23.6175C45.7093 22.3626 46.9318 21.1692 48.2137 20.0423Z" fill="url(#paint13_radial_333_9502)"/>
<path style="mix-blend-mode:screen" d="M41.4844 26.7553C41.4844 26.7553 52.0329 27.1256 56.1377 23.2426C61.0714 18.5754 55.7383 26.0067 55.7383 26.0067C53.2661 28.0324 50.3722 29.4738 47.2715 30.2239C44.1708 30.974 40.943 31.0136 37.8277 30.3396C38.9839 29.082 40.2045 27.8856 41.4844 26.7553Z" fill="url(#paint14_radial_333_9502)"/>
<path style="mix-blend-mode:screen" d="M33.8276 34.973C33.8276 34.973 48.1925 35.5391 51.78 30.3836C55.6649 24.8021 48.3415 36.8935 48.3415 36.8935C48.3415 36.8935 40.9808 40.8232 30.1692 38.5649C31.327 37.3059 32.5481 36.107 33.8276 34.973Z" fill="url(#paint15_radial_333_9502)"/>
<path style="mix-blend-mode:screen" d="M28.2991 41.6415C28.2991 41.6415 41.0246 43.2407 48.4256 36.4824C53.4423 31.8963 44.9813 42.9831 44.9813 42.9831C41.946 44.907 38.5361 46.1555 34.9818 46.6441C31.4276 47.1328 27.8117 46.8503 24.3783 45.8158C24.6108 45.3674 28.2991 41.6415 28.2991 41.6415Z" fill="url(#paint16_radial_333_9502)"/>
<path style="mix-blend-mode:screen" d="M22.1792 48.1698C22.1792 48.1698 33.898 50.4432 39.4537 46.72C45.0093 42.9969 38.8317 49.5047 38.8317 49.5047C35.7964 51.4287 32.3865 52.6771 28.8322 53.1658C25.278 53.6544 21.6621 53.372 18.2287 52.3374C18.4884 51.8717 22.1792 48.1698 22.1792 48.1698Z" fill="url(#paint17_radial_333_9502)"/>
</g>
<path style="mix-blend-mode:multiply" opacity="0.2" d="M62.5141 11.5578C59.5557 9.95902 53.7748 8.10506 49.4561 8.93846L52.1897 8.33733C47.8972 7.58971 42.5541 8.89787 40.194 9.77786C41.0052 9.17732 41.7989 8.69013 41.7989 8.69013C39.4004 8.97525 31.7219 12.4118 29.9323 13.56L31.6336 12.0404C24.0202 14.2095 17.486 22.7327 17.486 22.7327L17.8006 21.5678C13.8182 25.0026 11.3519 29.8802 10.9423 35.1311C11.3993 30.6842 13.3525 26.5238 16.4794 23.3365C16.5165 23.3448 16.6801 23.9363 16.6801 23.9363C16.6801 23.9363 22.7202 16.5457 29.2334 13.6227C29.2367 13.8813 29.2257 14.1398 29.2005 14.3971L30.0981 13.8628C33.2815 12.3768 36.5529 11.0894 39.8936 10.0078C44.5882 8.71116 46.0104 9.13824 48.9576 8.90531C48.9235 8.93215 48.8972 8.96761 48.8814 9.00804C48.8655 9.04847 48.8606 9.0924 48.8673 9.13529C48.8802 9.28669 58.295 8.73937 62.2272 12.0409C62.4099 11.7456 62.5091 11.5801 62.5141 11.5578Z" fill="url(#paint18_radial_333_9502)"/>
<path style="mix-blend-mode:multiply" opacity="0.5" d="M62.1301 11.6752C43.554 15.4687 21.2847 44.7187 18.4935 48.5042C14.2896 54.1552 9.8528 57.5732 6.34256 58.7591C5.5098 59.0031 6.88111 61.8187 8.06145 61.238C14.9487 55.8736 16.6279 53.0593 22.9927 45.2252C27.5963 39.5619 31.2539 35.5556 35.0438 31.3755C40.4406 25.436 51.0203 15.5259 62.1301 11.6752Z" fill="url(#paint19_linear_333_9502)"/>
<path style="mix-blend-mode:multiply" opacity="0.6" d="M7.83981 61.2195C8.3599 61.1559 7.13564 59.3894 7.01883 59.2851C7.49244 58.9766 8.72101 58.18 8.91341 57.9806C8.24119 58.3665 7.53986 58.6986 6.81592 58.974C6.75897 58.9142 6.68565 58.8728 6.60518 58.8548C6.52471 58.8368 6.4407 58.8432 6.36373 58.873C6.31561 58.8889 6.27359 58.9194 6.24352 58.9603C6.21345 59.0012 6.19684 59.0505 6.196 59.1013C6.19691 59.5673 6.33949 60.0216 6.60467 60.4035C6.86984 60.7855 7.24498 61.0768 7.67992 61.2385L7.83981 61.2195Z" fill="url(#paint20_linear_333_9502)"/>
<path style="mix-blend-mode:multiply" opacity="0.3" d="M17.1638 52.1235C17.9486 51.1184 18.4123 50.4012 18.4123 50.4012C18.4123 50.4012 17.8754 51.063 17.0396 52.0176C16.6216 52.4949 16.1187 53.0392 15.5836 53.6233C15.0485 54.2073 14.4622 54.8112 13.8611 55.4118C13.26 56.0123 12.6606 56.6054 12.0893 57.1423C11.518 57.6792 10.9739 58.1987 10.4918 58.6148L8.88714 60.0152L9.36165 59.6678C9.65298 59.4436 10.0879 59.1343 10.5757 58.7273C11.0635 58.3203 11.6421 57.8554 12.2356 57.3235C12.8291 56.7916 13.4343 56.2076 14.0428 55.6087C14.6513 55.0098 15.2203 54.3786 15.7423 53.7838C16.2643 53.189 16.7648 52.6207 17.1638 52.1235Z" fill="url(#paint21_radial_333_9502)"/>
</g>
<defs>
<filter id="filter0_f_333_9502" x="0.0872803" y="2.11523" width="68.4532" height="65.2014" filterUnits="userSpaceOnUse" color-interpolation-filters="sRGB">
<feFlood flood-opacity="0" result="BackgroundImageFix"/>
<feBlend mode="normal" in="SourceGraphic" in2="BackgroundImageFix" result="shape"/>
<feGaussianBlur stdDeviation="3" result="effect1_foregroundBlur_333_9502"/>
</filter>
<linearGradient id="paint0_linear_333_9502" x1="16.1852" y1="48.4202" x2="58.4143" y2="6.2312" gradientUnits="userSpaceOnUse">
<stop stop-color="#88C718"/>
<stop offset="0.26" stop-color="#83C418"/>
<stop offset="0.59" stop-color="#74BA16"/>
<stop offset="0.95" stop-color="#5AAA14"/>
<stop offset="1" stop-color="#56A714"/>
</linearGradient>
<linearGradient id="paint1_linear_333_9502" x1="54.5899" y1="14.6374" x2="9.20263" y2="63.8984" gradientUnits="userSpaceOnUse">
<stop stop-color="#6FBD37"/>
<stop offset="1" stop-color="#89C93A"/>
</linearGradient>
<linearGradient id="paint2_linear_333_9502" x1="25.2189" y1="14.9654" x2="39.045" y2="29.3057" gradientUnits="userSpaceOnUse">
<stop stop-color="white"/>
<stop offset="1" stop-color="#377A00"/>
</linearGradient>
<linearGradient id="paint3_linear_333_9502" x1="22.0762" y1="19.9265" x2="26.1843" y2="39.8708" gradientUnits="userSpaceOnUse">
<stop stop-color="#5FA200"/>
<stop offset="0.15" stop-color="#6DA800"/>
<stop offset="0.34" stop-color="#7CAE00"/>
<stop offset="1" stop-color="#5FA200"/>
</linearGradient>
<linearGradient id="paint4_linear_333_9502" x1="24.567" y1="15.9568" x2="29.9365" y2="34.198" gradientUnits="userSpaceOnUse">
<stop stop-color="#5FA200"/>
<stop offset="0.15" stop-color="#6DA800"/>
<stop offset="0.34" stop-color="#7CAE00"/>
<stop offset="1" stop-color="#5FA200"/>
</linearGradient>
<linearGradient id="paint5_linear_333_9502" x1="34.9507" y1="10.6897" x2="38.4629" y2="25.2964" gradientUnits="userSpaceOnUse">
<stop stop-color="#5FA200"/>
<stop offset="0.15" stop-color="#6DA800"/>
<stop offset="0.34" stop-color="#7CAE00"/>
<stop offset="1" stop-color="#5FA200"/>
</linearGradient>
<linearGradient id="paint6_linear_333_9502" x1="48.0839" y1="9.37885" x2="48.3025" y2="20.493" gradientUnits="userSpaceOnUse">
<stop stop-color="#5FA200"/>
<stop offset="0.15" stop-color="#6DA800"/>
<stop offset="0.34" stop-color="#7CAE00"/>
<stop offset="1" stop-color="#5FA200"/>
</linearGradient>
<linearGradient id="paint7_linear_333_9502" x1="15.0091" y1="26.9485" x2="22.0205" y2="44.5497" gradientUnits="userSpaceOnUse">
<stop stop-color="#5FA200"/>
<stop offset="0.15" stop-color="#6DA800"/>
<stop offset="0.34" stop-color="#7CAE00"/>
<stop offset="1" stop-color="#5FA200"/>
</linearGradient>
<linearGradient id="paint8_linear_333_9502" x1="46.1552" y1="38.3535" x2="28.1012" y2="39.0194" gradientUnits="userSpaceOnUse">
<stop stop-color="#5FA200"/>
<stop offset="0.15" stop-color="#6DA800"/>
<stop offset="0.34" stop-color="#7CAE00"/>
<stop offset="1" stop-color="#5FA200"/>
</linearGradient>
<linearGradient id="paint9_linear_333_9502" x1="50.1818" y1="34.9642" x2="32.4926" y2="33.02" gradientUnits="userSpaceOnUse">
<stop stop-color="#5FA200"/>
<stop offset="0.15" stop-color="#6DA800"/>
<stop offset="0.34" stop-color="#7CAE00"/>
<stop offset="1" stop-color="#5FA200"/>
</linearGradient>
<linearGradient id="paint10_linear_333_9502" x1="55.1839" y1="28.4387" x2="41.0705" y2="24.9482" gradientUnits="userSpaceOnUse">
<stop stop-color="#5FA200"/>
<stop offset="0.15" stop-color="#6DA800"/>
<stop offset="0.34" stop-color="#7CAE00"/>
<stop offset="1" stop-color="#5FA200"/>
</linearGradient>
<linearGradient id="paint11_linear_333_9502" x1="59.6324" y1="21.7501" x2="48.6653" y2="20.0602" gradientUnits="userSpaceOnUse">
<stop stop-color="#5FA200"/>
<stop offset="0.15" stop-color="#6DA800"/>
<stop offset="0.34" stop-color="#7CAE00"/>
<stop offset="1" stop-color="#5FA200"/>
</linearGradient>
<linearGradient id="paint12_linear_333_9502" x1="37.6076" y1="47.6068" x2="22.8664" y2="45.6228" gradientUnits="userSpaceOnUse">
<stop stop-color="#5FA200"/>
<stop offset="0.15" stop-color="#6DA800"/>
<stop offset="0.34" stop-color="#7CAE00"/>
<stop offset="1" stop-color="#5FA200"/>
</linearGradient>
<radialGradient id="paint13_radial_333_9502" cx="0" cy="0" r="1" gradientUnits="userSpaceOnUse" gradientTransform="translate(60.9889 17.5038) rotate(41.3071) scale(12.9718 13.0028)">
<stop stop-color="#7CAE00"/>
<stop offset="1"/>
</radialGradient>
<radialGradient id="paint14_radial_333_9502" cx="0" cy="0" r="1" gradientUnits="userSpaceOnUse" gradientTransform="translate(51.395 26.4747) rotate(41.307) scale(10.7082 10.7338)">
<stop stop-color="#7CAE00"/>
<stop offset="1"/>
</radialGradient>
<radialGradient id="paint15_radial_333_9502" cx="0" cy="0" r="1" gradientUnits="userSpaceOnUse" gradientTransform="translate(44.4594 35.0762) rotate(41.3071) scale(10.7997 10.8255)">
<stop stop-color="#7CAE00"/>
<stop offset="1"/>
</radialGradient>
<radialGradient id="paint16_radial_333_9502" cx="0" cy="0" r="1" gradientUnits="userSpaceOnUse" gradientTransform="translate(43.0635 40.8162) rotate(41.3071) scale(15.2964 15.333)">
<stop stop-color="#7CAE00"/>
<stop offset="1"/>
</radialGradient>
<radialGradient id="paint17_radial_333_9502" cx="0" cy="0" r="1" gradientUnits="userSpaceOnUse" gradientTransform="translate(35.2002 49.426) rotate(41.3071) scale(12.9108 12.9417)">
<stop stop-color="#7CAE00"/>
<stop offset="1"/>
</radialGradient>
<radialGradient id="paint18_radial_333_9502" cx="0" cy="0" r="1" gradientUnits="userSpaceOnUse" gradientTransform="translate(40.2844 10.7014) rotate(41.3071) scale(43.4883 43.5923)">
<stop stop-color="#377A00"/>
<stop offset="0.09" stop-color="#3C7D06"/>
<stop offset="0.22" stop-color="#4A8719"/>
<stop offset="0.36" stop-color="#629636"/>
<stop offset="0.53" stop-color="#82AC60"/>
<stop offset="0.7" stop-color="#ACC895"/>
<stop offset="0.89" stop-color="#DEE9D5"/>
<stop offset="1" stop-color="white"/>
</radialGradient>
<linearGradient id="paint19_linear_333_9502" x1="8.00403" y1="61.9175" x2="60.7295" y2="10.554" gradientUnits="userSpaceOnUse">
<stop stop-color="white"/>
<stop offset="0.01" stop-color="#E2ECDA"/>
<stop offset="0.03" stop-color="#B5CEA1"/>
<stop offset="0.05" stop-color="#8FB470"/>
<stop offset="0.07" stop-color="#6F9F47"/>
<stop offset="0.09" stop-color="#578F28"/>
<stop offset="0.11" stop-color="#458312"/>
<stop offset="0.13" stop-color="#3B7C05"/>
<stop offset="0.14" stop-color="#377A00"/>
<stop offset="0.17" stop-color="#3D7E07"/>
<stop offset="0.21" stop-color="#4D881C"/>
<stop offset="0.25" stop-color="#679A3D"/>
<stop offset="0.31" stop-color="#8BB26B"/>
<stop offset="0.37" stop-color="#BAD1A7"/>
<stop offset="0.43" stop-color="#F1F6EE"/>
<stop offset="0.45" stop-color="white"/>
<stop offset="1" stop-color="#377A00"/>
</linearGradient>
<linearGradient id="paint20_linear_333_9502" x1="6.49444" y1="62.0247" x2="9.91397" y2="59.6963" gradientUnits="userSpaceOnUse">
<stop stop-color="white"/>
<stop offset="0.11" stop-color="#DEE9D5"/>
<stop offset="0.3" stop-color="#ACC895"/>
<stop offset="0.47" stop-color="#82AC60"/>
<stop offset="0.64" stop-color="#629636"/>
<stop offset="0.78" stop-color="#4A8719"/>
<stop offset="0.91" stop-color="#3C7D06"/>
<stop offset="1" stop-color="#377A00"/>
</linearGradient>
<radialGradient id="paint21_radial_333_9502" cx="0" cy="0" r="1" gradientUnits="userSpaceOnUse" gradientTransform="translate(15.9883 55.2443) rotate(41.3071) scale(8.92478 8.94613)">
<stop stop-color="#377A00"/>
<stop offset="0.09" stop-color="#3C7D06"/>
<stop offset="0.22" stop-color="#4A8719"/>
<stop offset="0.36" stop-color="#629636"/>
<stop offset="0.53" stop-color="#82AC60"/>
<stop offset="0.7" stop-color="#ACC895"/>
<stop offset="0.89" stop-color="#DEE9D5"/>
<stop offset="1" stop-color="white"/>
</radialGradient>
</defs>
</svg>
