<svg width="123" height="21" viewBox="0 0 123 21" fill="none" xmlns="http://www.w3.org/2000/svg">
<path d="M10.17 0.591514C10.2298 0.407252 10.4905 0.407252 10.5504 0.591514L12.6189 6.95778C12.6457 7.04018 12.7225 7.09598 12.8091 7.09598H19.503C19.6967 7.09598 19.7773 7.3439 19.6206 7.45778L14.2051 11.3923C14.135 11.4433 14.1057 11.5335 14.1324 11.616L16.201 17.9822C16.2608 18.1665 16.0499 18.3197 15.8932 18.2058L10.4777 14.2713C10.4076 14.2203 10.3127 14.2203 10.2426 14.2713L4.82714 18.2058C4.6704 18.3197 4.4595 18.1665 4.51937 17.9822L6.5879 11.616C6.61467 11.5335 6.58534 11.4433 6.51524 11.3923L1.09978 7.45778C0.943034 7.3439 1.02359 7.09598 1.21733 7.09598H7.91122C7.99787 7.09598 8.07466 7.04018 8.10143 6.95778L10.17 0.591514Z" fill="#FFAC60"/>
<path d="M35.6911 0.591514C35.7509 0.407252 36.0116 0.407252 36.0715 0.591514L38.14 6.95778C38.1668 7.04018 38.2436 7.09598 38.3302 7.09598H45.0241C45.2179 7.09598 45.2984 7.3439 45.1417 7.45778L39.7262 11.3923C39.6561 11.4433 39.6268 11.5335 39.6536 11.616L41.7221 17.9822C41.782 18.1665 41.5711 18.3197 41.4143 18.2058L35.9988 14.2713C35.9287 14.2203 35.8338 14.2203 35.7637 14.2713L30.3483 18.2058C30.1915 18.3197 29.9806 18.1665 30.0405 17.9822L32.109 11.616C32.1358 11.5335 32.1065 11.4433 32.0364 11.3923L26.6209 7.45778C26.4642 7.3439 26.5447 7.09598 26.7385 7.09598H33.4323C33.519 7.09598 33.5958 7.04018 33.6226 6.95778L35.6911 0.591514Z" fill="#FFAC60"/>
<path d="M61.2122 0.591514C61.2721 0.407252 61.5327 0.407252 61.5926 0.591514L63.6611 6.95778C63.6879 7.04018 63.7647 7.09598 63.8514 7.09598H70.5452C70.739 7.09598 70.8195 7.3439 70.6628 7.45778L65.2473 11.3923C65.1772 11.4433 65.1479 11.5335 65.1747 11.616L67.2432 17.9822C67.3031 18.1665 67.0922 18.3197 66.9354 18.2058L61.52 14.2713C61.4499 14.2203 61.3549 14.2203 61.2848 14.2713L55.8694 18.2058C55.7126 18.3197 55.5017 18.1665 55.5616 17.9822L57.6301 11.616C57.6569 11.5335 57.6276 11.4433 57.5575 11.3923L52.142 7.45778C51.9853 7.3439 52.0658 7.09598 52.2596 7.09598H58.9535C59.0401 7.09598 59.1169 7.04018 59.1437 6.95778L61.2122 0.591514Z" fill="#FFAC60"/>
<path d="M86.7332 0.591514C86.7931 0.407252 87.0537 0.407252 87.1136 0.591514L89.1821 6.95778C89.2089 7.04018 89.2857 7.09598 89.3723 7.09598H96.0662C96.26 7.09598 96.3405 7.3439 96.1838 7.45778L90.7683 11.3923C90.6982 11.4433 90.6689 11.5335 90.6957 11.616L92.7642 17.9822C92.8241 18.1665 92.6132 18.3197 92.4564 18.2058L87.041 14.2713C86.9709 14.2203 86.8759 14.2203 86.8058 14.2713L81.3904 18.2058C81.2336 18.3197 81.0227 18.1665 81.0826 17.9822L83.1511 11.616C83.1779 11.5335 83.1486 11.4433 83.0785 11.3923L77.663 7.45778C77.5063 7.3439 77.5868 7.09598 77.7806 7.09598H84.4745C84.5611 7.09598 84.6379 7.04018 84.6647 6.95778L86.7332 0.591514Z" fill="#FFAC60"/>
<path d="M112.254 0.591514C112.314 0.407252 112.575 0.407252 112.635 0.591514L114.703 6.95778C114.73 7.04018 114.807 7.09598 114.894 7.09598H121.587C121.781 7.09598 121.862 7.3439 121.705 7.45778L116.29 11.3923C116.219 11.4433 116.19 11.5335 116.217 11.616L118.285 17.9822C118.345 18.1665 118.134 18.3197 117.978 18.2058L112.562 14.2713C112.492 14.2203 112.397 14.2203 112.327 14.2713L106.912 18.2058C106.755 18.3197 106.544 18.1665 106.604 17.9822L108.672 11.616C108.699 11.5335 108.67 11.4433 108.6 11.3923L103.184 7.45778C103.028 7.3439 103.108 7.09598 103.302 7.09598H109.996C110.082 7.09598 110.159 7.04018 110.186 6.95778L112.254 0.591514Z" fill="#D9D9D9"/>
</svg>
