<svg width="123" height="21" viewBox="0 0 123 21" fill="none" xmlns="http://www.w3.org/2000/svg">
<path d="M10.17 0.591514C10.2299 0.407252 10.4906 0.407252 10.5504 0.591514L12.619 6.95778C12.6457 7.04018 12.7225 7.09598 12.8092 7.09598H19.5031C19.6968 7.09598 19.7774 7.3439 19.6206 7.45778L14.2052 11.3923C14.1351 11.4433 14.1057 11.5335 14.1325 11.616L16.201 17.9822C16.2609 18.1665 16.05 18.3197 15.8933 18.2058L10.4778 14.2713C10.4077 14.2203 10.3128 14.2203 10.2427 14.2713L4.8272 18.2058C4.67046 18.3197 4.45957 18.1665 4.51944 17.9822L6.58796 11.616C6.61474 11.5335 6.5854 11.4433 6.51531 11.3923L1.09984 7.45778C0.943095 7.3439 1.02365 7.09598 1.21739 7.09598H7.91128C7.99793 7.09598 8.07472 7.04018 8.10149 6.95778L10.17 0.591514Z" fill="#FFAC60"/>
<path d="M35.6911 0.591514C35.751 0.407252 36.0117 0.407252 36.0716 0.591514L38.1401 6.95778C38.1669 7.04018 38.2437 7.09598 38.3303 7.09598H45.0242C45.2179 7.09598 45.2985 7.3439 45.1417 7.45778L39.7263 11.3923C39.6562 11.4433 39.6268 11.5335 39.6536 11.616L41.7221 17.9822C41.782 18.1665 41.5711 18.3197 41.4144 18.2058L35.9989 14.2713C35.9288 14.2203 35.8339 14.2203 35.7638 14.2713L30.3483 18.2058C30.1916 18.3197 29.9807 18.1665 30.0406 17.9822L32.1091 11.616C32.1359 11.5335 32.1065 11.4433 32.0364 11.3923L26.621 7.45778C26.4642 7.3439 26.5448 7.09598 26.7385 7.09598H33.4324C33.519 7.09598 33.5958 7.04018 33.6226 6.95778L35.6911 0.591514Z" fill="#FFAC60"/>
<path d="M61.2122 0.591514C61.2721 0.407252 61.5327 0.407252 61.5926 0.591514L63.6611 6.95778C63.6879 7.04018 63.7647 7.09598 63.8514 7.09598H70.5452C70.739 7.09598 70.8195 7.3439 70.6628 7.45778L65.2473 11.3923C65.1772 11.4433 65.1479 11.5335 65.1747 11.616L67.2432 17.9822C67.3031 18.1665 67.0922 18.3197 66.9354 18.2058L61.52 14.2713C61.4499 14.2203 61.3549 14.2203 61.2848 14.2713L55.8694 18.2058C55.7126 18.3197 55.5017 18.1665 55.5616 17.9822L57.6301 11.616C57.6569 11.5335 57.6276 11.4433 57.5575 11.3923L52.142 7.45778C51.9853 7.3439 52.0658 7.09598 52.2596 7.09598H58.9535C59.0401 7.09598 59.1169 7.04018 59.1437 6.95778L61.2122 0.591514Z" fill="#FFAC60"/>
<path d="M86.7333 0.591514C86.7932 0.407252 87.0539 0.407252 87.1137 0.591514L89.1823 6.95778C89.209 7.04018 89.2858 7.09598 89.3725 7.09598H96.0664C96.2601 7.09598 96.3407 7.3439 96.1839 7.45778L90.7684 11.3923C90.6983 11.4433 90.669 11.5335 90.6958 11.616L92.7643 17.9822C92.8242 18.1665 92.6133 18.3197 92.4565 18.2058L87.0411 14.2713C86.971 14.2203 86.8761 14.2203 86.806 14.2713L81.3905 18.2058C81.2338 18.3197 81.0229 18.1665 81.0827 17.9822L83.1513 11.616C83.178 11.5335 83.1487 11.4433 83.0786 11.3923L77.6631 7.45778C77.5064 7.3439 77.5869 7.09598 77.7807 7.09598H84.4746C84.5612 7.09598 84.638 7.04018 84.6648 6.95778L86.7333 0.591514Z" fill="#FFAC60"/>
<path d="M112.254 0.591514C112.314 0.407252 112.575 0.407252 112.635 0.591514L114.703 6.95778C114.73 7.04018 114.807 7.09598 114.894 7.09598H121.587C121.781 7.09598 121.862 7.3439 121.705 7.45778L116.29 11.3923C116.219 11.4433 116.19 11.5335 116.217 11.616L118.285 17.9822C118.345 18.1665 118.134 18.3197 117.978 18.2058L112.562 14.2713C112.492 14.2203 112.397 14.2203 112.327 14.2713L106.912 18.2058C106.755 18.3197 106.544 18.1665 106.604 17.9822L108.672 11.616C108.699 11.5335 108.67 11.4433 108.6 11.3923L103.184 7.45778C103.028 7.3439 103.108 7.09598 103.302 7.09598H109.996C110.082 7.09598 110.159 7.04018 110.186 6.95778L112.254 0.591514Z" fill="#D9D9D9"/>
</svg>
