<svg width="60" height="49" viewBox="0 0 60 49" fill="none" xmlns="http://www.w3.org/2000/svg">
<g filter="url(#filter0_f_333_4446)">
<path d="M19.6959 16.0154C21.5329 12.2818 27.6296 9.52964 29.7581 8.96205C29.2078 9.57581 28.7817 10.2906 28.5032 11.0668C30.5616 10.2497 34.1523 8.95465 35.9156 8.78863C35.2638 9.51716 34.7924 10.3892 34.5396 11.3341C36.4297 10.8753 44.8473 8.943 45.1485 8.69694C44.683 9.39373 44.2911 10.1372 43.9792 10.9152C45.7898 10.407 49.0829 8.71098 49.3785 4.61461C53.1671 6.57758 54.0174 12.99 52.4581 16.2448C52.3673 16.4318 53.7684 15.6139 53.7099 15.8097C52.202 21.0778 48.8833 24.342 48.5477 24.3167C49.0214 24.387 49.4911 24.4645 49.9602 24.5183C48.5617 27.3033 45.4231 30.7623 42.5793 31.9733C43.1214 32.4013 43.7353 32.7292 44.3922 32.9417C41.5326 36.0491 37.7836 38.1961 33.6577 39.0892C34.2098 39.8314 34.8533 40.5008 35.5729 41.0816C31.3513 43.3852 23.9434 42.5519 20.1313 39.8239C18.5481 38.6953 17.3621 37.4492 16.8069 35.5356C16.5937 34.776 15.5459 34.6395 15.1844 34.0113C14.9624 33.625 15.1945 33.3026 15.125 32.9274C14.9796 32.3123 14.6606 31.752 14.206 31.3133C13.6688 30.6881 13.3212 29.9224 13.2042 29.1063C12.6631 26.5066 12.8933 23.8057 13.8663 21.3363C15.1702 18.3694 17.1195 15.7318 19.5718 13.6159C19.5347 14.4178 19.5763 15.2215 19.6959 16.0154Z" fill="url(#paint0_linear_333_4446)"/>
<path d="M6.47446 37.9876C5.72559 38.15 5.20379 36.7593 5.88053 36.4677C13.4364 34.4635 20.7871 31.7532 27.8358 28.3725C33.6152 25.5539 41.9264 20.5831 47.1368 15.9504C49.6699 13.6962 51.8722 8.604 49.5832 4.79058C50.4869 5.73313 52.7579 10.8017 47.4234 16.5458C44.2075 19.9846 37.3279 24.5655 31.4747 27.8235C23.5665 32.1765 15.1761 35.5878 6.47446 37.9876Z" fill="url(#paint1_linear_333_4446)"/>
<g style="mix-blend-mode:multiply" opacity="0.7">
<path opacity="0.8" d="M31.4582 27.8281C37.328 24.5654 44.2352 19.9767 47.4069 16.5503C52.3937 11.1849 50.7322 6.39387 49.7576 5.02861L49.5268 4.6747C53.1704 6.73819 53.9716 12.9969 52.4347 16.2036C52.3438 16.3906 53.7449 15.5726 53.6864 15.7685C52.1786 21.0366 48.8598 24.3008 48.5242 24.2754C48.9979 24.3458 49.4677 24.4233 49.9367 24.477C48.5383 27.2621 45.3996 30.7211 42.5558 31.9321C43.0979 32.3601 43.7119 32.688 44.3688 32.9005C41.5091 36.0079 37.7601 38.1549 33.6342 39.048C34.1864 39.7901 34.8299 40.4596 35.5494 41.0404C31.3278 43.344 23.92 42.5107 20.1078 39.7827C18.5246 38.6541 17.3386 37.408 16.7835 35.4944C16.6775 35.1968 16.4675 34.9477 16.1923 34.793C21.4419 32.8421 26.5438 30.5144 31.4582 27.8281Z" fill="url(#paint2_linear_333_4446)"/>
<path opacity="0.6" d="M19.696 16.0154C21.533 12.2818 27.6297 9.52964 29.7582 8.96206C29.2079 9.57581 28.7818 10.2906 28.5033 11.0668C30.5617 10.2497 34.1524 8.95465 35.9157 8.78863C35.2639 9.51717 34.7925 10.3892 34.5397 11.3341C36.4298 10.8753 44.8474 8.94301 45.1486 8.69694C44.6831 9.39373 44.2912 10.1372 43.9794 10.9152C45.7899 10.407 49.083 8.71098 49.3786 4.61461L49.5096 4.6556L49.7362 5.05852C51.7789 8.84541 49.6145 13.7535 47.1385 15.9558C41.9281 20.5885 33.5954 25.5892 27.8375 28.3779C23.6896 30.3717 19.4334 32.1316 15.0889 33.6493C15.1204 33.4082 15.132 33.1649 15.1236 32.9218C14.9782 32.3068 14.6592 31.7465 14.2045 31.3077C13.6674 30.6826 13.3198 29.9168 13.2027 29.1008C12.6617 26.501 12.8918 23.8001 13.8648 21.3307C15.1688 18.3638 17.118 15.7262 19.5704 13.6103C19.5334 14.4141 19.5755 15.2197 19.696 16.0154Z" fill="url(#paint3_linear_333_4446)"/>
<path opacity="0.8" d="M19.696 16.0154C21.533 12.2818 27.6297 9.52964 29.7582 8.96206C29.2079 9.57581 28.7818 10.2906 28.5033 11.0668C30.5617 10.2497 34.1524 8.95465 35.9157 8.78863C35.2639 9.51717 34.7925 10.3892 34.5397 11.3341C36.4298 10.8753 44.8474 8.94301 45.1486 8.69694C44.6831 9.39373 44.2912 10.1372 43.9794 10.9152C45.7899 10.407 49.083 8.71098 49.3786 4.61461L49.5096 4.6556L49.7362 5.05852C51.7789 8.84541 49.6145 13.7535 47.1385 15.9558C41.9281 20.5885 33.5954 25.5892 27.8375 28.3779C23.6896 30.3717 19.4334 32.1316 15.0889 33.6493C15.1204 33.4082 15.132 33.1649 15.1236 32.9218C14.9782 32.3068 14.6592 31.7465 14.2045 31.3077C13.6674 30.6826 13.3198 29.9168 13.2027 29.1008C12.6617 26.501 12.8918 23.8001 13.8648 21.3307C15.1688 18.3638 17.118 15.7262 19.5704 13.6103C19.5334 14.4141 19.5755 15.2197 19.696 16.0154Z" fill="url(#paint4_linear_333_4446)"/>
</g>
<mask id="mask0_333_4446" style="mask-type:luminance" maskUnits="userSpaceOnUse" x="12" y="4" width="42" height="39">
<path d="M19.6959 16.0154C21.5329 12.2818 27.6296 9.52964 29.7581 8.96205C29.2078 9.57581 28.7817 10.2906 28.5032 11.0668C30.5616 10.2497 34.1523 8.95465 35.9156 8.78863C35.2638 9.51716 34.7924 10.3892 34.5396 11.3341C36.4297 10.8753 44.8473 8.943 45.1485 8.69694C44.683 9.39373 44.2911 10.1372 43.9792 10.9152C45.7898 10.407 49.0829 8.71098 49.3785 4.61461C53.1671 6.57758 54.0174 12.99 52.4581 16.2448C52.3673 16.4318 53.7684 15.6139 53.7099 15.8097C52.202 21.0778 48.8833 24.342 48.5477 24.3167C49.0214 24.387 49.4911 24.4645 49.9602 24.5183C48.5617 27.3033 45.4231 30.7623 42.5793 31.9733C43.1214 32.4013 43.7353 32.7292 44.3922 32.9417C41.5326 36.0491 37.7836 38.1961 33.6577 39.0892C34.2098 39.8314 34.8533 40.5008 35.5729 41.0816C31.3513 43.3852 23.9434 42.5519 20.1313 39.8239C18.5481 38.6953 17.3621 37.4492 16.8069 35.5356C16.5937 34.776 15.5459 34.6395 15.1844 34.0113C14.9624 33.625 15.1945 33.3026 15.125 32.9274C14.9796 32.3123 14.6606 31.752 14.206 31.3133C13.6688 30.6881 13.3212 29.9224 13.2042 29.1063C12.6631 26.5066 12.8933 23.8057 13.8663 21.3363C15.1702 18.3694 17.1195 15.7318 19.5718 13.6159C19.5347 14.4178 19.5763 15.2215 19.6959 16.0154Z" fill="white"/>
</mask>
<g mask="url(#mask0_333_4446)">
<g style="mix-blend-mode:screen" opacity="0.7">
<path opacity="0.6" d="M22.6556 31.3038C23.0547 30.9167 23.8305 30.7228 23.8204 30.1335C23.6176 15.3032 25.6595 13.9166 26.7882 12.3198C21.8024 16.71 24.4094 28.742 21.8285 31.6556C21.9843 31.6661 22.1404 31.6397 22.2841 31.5786C22.4278 31.5175 22.5551 31.4233 22.6556 31.3038Z" fill="url(#paint5_linear_333_4446)"/>
<path opacity="0.6" d="M19.8787 31.4553C20.0064 31.9099 19.3831 32.2643 19.1183 32.6616C19.0556 32.7809 18.9676 32.885 18.8606 32.9667C18.7535 33.0484 18.63 33.1057 18.4985 33.1347C20.1179 30.2218 15.8102 21.4305 19.169 16.7553C18.5225 18.2826 17.0825 19.8771 19.8787 31.4553Z" fill="url(#paint6_linear_333_4446)"/>
<path opacity="0.6" d="M28.1932 27.9431C28.1414 28.4182 27.4512 28.5342 27.0715 28.8202C26.9689 28.908 26.8483 28.9723 26.7183 29.0088C26.5883 29.0453 26.4519 29.0531 26.3185 29.0316C28.8284 26.8437 28.3645 15.2328 33.0958 11.9787C31.9694 13.222 29.5008 16.1101 28.1932 27.9431Z" fill="url(#paint7_linear_333_4446)"/>
<path opacity="0.6" d="M35.7294 24.6371C35.4506 24.7931 35.1774 24.9475 34.9002 25.1091C36.1855 20.8784 36.6686 13.045 40.399 10.5025C39.352 11.6458 37.0764 14.3062 35.7294 24.6371Z" fill="url(#paint8_linear_333_4446)"/>
<path opacity="0.6" d="M41.8656 20.7913C41.6874 20.9011 41.0375 21.2032 40.8592 21.313C41.383 18.923 41.2699 12.8599 43.6509 11.0431C43.0201 11.8602 41.6905 13.6988 41.8656 20.7913Z" fill="url(#paint9_linear_333_4446)"/>
<path opacity="0.3" d="M45.1303 17.7813C45.2346 17.9614 45.6279 17.4263 45.7504 17.6073C46.6222 15.8613 49.6625 10.2647 48.9896 7.27161C49.0222 9.06878 47.9368 12.5435 45.1303 17.7813Z" fill="url(#paint10_linear_333_4446)"/>
</g>
<g style="mix-blend-mode:screen" opacity="0.7">
<path opacity="0.7" d="M27.7146 29.5787C35.3251 37.5386 37.3234 36.7204 38.9303 36.7419C34.5727 37.9651 30.2868 32.7624 26.9268 29.9853C27.201 29.8736 27.4647 29.7376 27.7146 29.5787Z" fill="url(#paint11_linear_333_4446)"/>
<path opacity="0.7" d="M23.4334 31.0317C23.5904 30.9099 23.7489 30.7936 23.9295 30.6712C24.4067 30.8602 24.7773 31.0313 24.8634 31.2105C27.4762 36.5599 32.1201 39.8678 33.7036 40.3803C29.0607 39.9491 25.664 33.9345 22.797 31.318C23.0158 31.2382 23.2285 31.1425 23.4334 31.0317Z" fill="url(#paint12_linear_333_4446)"/>
<path opacity="0.7" d="M19.1148 33.3088C19.3025 33.2017 19.4823 33.0813 19.6527 32.9484C19.7422 32.9903 19.8208 33.0521 19.8827 33.1291C22.8387 38.1908 27.7357 41.2721 29.3722 41.7398C24.868 41.4192 21.2676 36.2752 18.2821 33.6622C18.5712 33.5736 18.8502 33.4552 19.1148 33.3088Z" fill="url(#paint13_linear_333_4446)"/>
<path opacity="0.7" d="M29.6554 28.1726L30.001 27.9141C37.5324 32.3792 40.878 32.2535 42.3368 32.173C38.1951 33.3356 33.2969 30.7391 28.8655 28.508C29.1382 28.4197 29.4026 28.3075 29.6554 28.1726Z" fill="url(#paint14_linear_333_4446)"/>
<path opacity="0.7" d="M35.2852 24.8637C35.0206 25.0277 34.7782 25.1855 34.4788 25.3533C38.4403 25.8681 44.7494 28.3197 48.7298 26.2633C47.2687 26.6974 43.9903 27.5519 35.2852 24.8637Z" fill="url(#paint15_linear_333_4446)"/>
<path opacity="0.7" d="M41.4198 21.2037C41.2864 21.3668 40.6041 21.8514 40.454 22.0191C42.8802 21.8524 49.1668 22.9048 51.2917 20.7711C50.4267 21.307 48.4115 22.3632 41.4198 21.2037Z" fill="url(#paint16_linear_333_4446)"/>
<path opacity="0.7" d="M44.569 18.3996C48.8224 17.9114 51.4582 17.1296 52.7115 16.3172C50.9962 17.995 46.71 18.6001 44.0146 18.9141C44.2156 18.761 44.4013 18.5886 44.569 18.3996Z" fill="url(#paint17_linear_333_4446)"/>
</g>
</g>
<path opacity="0.6" d="M6.47446 37.9876C5.72559 38.15 5.20379 36.7593 5.88053 36.4677C13.4364 34.4635 20.7871 31.7532 27.8358 28.3725C33.6152 25.5539 41.9264 20.5831 47.1368 15.9504C49.6699 13.6962 51.8722 8.604 49.5832 4.79058C50.4869 5.73313 52.7579 10.8017 47.4234 16.5458C44.2075 19.9846 37.3279 24.5655 31.4747 27.8235C23.5665 32.1765 15.1761 35.5878 6.47446 37.9876Z" fill="url(#paint18_linear_333_4446)"/>
<mask id="mask1_333_4446" style="mask-type:luminance" maskUnits="userSpaceOnUse" x="12" y="4" width="42" height="39">
<path d="M19.6959 16.0154C21.5329 12.2818 27.6296 9.52964 29.7581 8.96205C29.2078 9.57581 28.7817 10.2906 28.5032 11.0668C30.5616 10.2497 34.1523 8.95465 35.9156 8.78863C35.2638 9.51716 34.7924 10.3892 34.5396 11.3341C36.4297 10.8753 44.8473 8.943 45.1485 8.69694C44.683 9.39373 44.2911 10.1372 43.9792 10.9152C45.7898 10.407 49.0829 8.71098 49.3785 4.61461C53.1671 6.57758 54.0174 12.99 52.4581 16.2448C52.3673 16.4318 53.7684 15.6139 53.7099 15.8097C52.202 21.0778 48.8833 24.342 48.5477 24.3167C49.0214 24.387 49.4911 24.4645 49.9602 24.5183C48.5617 27.3033 45.4231 30.7623 42.5793 31.9733C43.1214 32.4013 43.7353 32.7292 44.3922 32.9417C41.5326 36.0491 37.7836 38.1961 33.6577 39.0892C34.2098 39.8314 34.8533 40.5008 35.5729 41.0816C31.3513 43.3852 23.9434 42.5519 20.1313 39.8239C18.5481 38.6953 17.3621 37.4492 16.8069 35.5356C16.5937 34.776 15.5459 34.6395 15.1844 34.0113C14.9624 33.625 15.1945 33.3026 15.125 32.9274C14.9796 32.3123 14.6606 31.752 14.206 31.3133C13.6688 30.6881 13.3212 29.9224 13.2042 29.1063C12.6631 26.5066 12.8933 23.8057 13.8663 21.3363C15.1702 18.3694 17.1195 15.7318 19.5718 13.6159C19.5347 14.4178 19.5763 15.2215 19.6959 16.0154Z" fill="white"/>
</mask>
<g mask="url(#mask1_333_4446)">
<path style="mix-blend-mode:screen" opacity="0.8" d="M41.2761 9.52077C40.7854 10.1131 40.3159 10.7174 39.8652 11.3464C39.3845 11.9987 38.957 12.6888 38.5868 13.4099C38.2244 14.172 37.9121 14.957 37.6516 15.7598C36.9723 17.7449 36.1371 22.5789 35.8732 22.958C35.6093 23.3371 32.5931 24.9554 31.8853 25.4771C31.3113 23.9216 32.0288 19.4556 33.07 16.3342C33.5893 14.8008 35.4016 12.0431 36.4631 10.824C37.487 9.5451 38.9666 8.71381 40.5908 8.50496C40.9986 8.46824 41.54 8.60935 41.5406 9.01589C41.5139 9.20993 41.4204 9.3885 41.2761 9.52077Z" fill="url(#paint19_radial_333_4446)"/>
<path style="mix-blend-mode:screen" opacity="0.4" d="M47.3 5.70049C46.8092 6.29283 45.7964 8.13225 45.267 8.69356C41.3146 12.9133 42.1712 18.7737 41.9073 19.1528C41.6433 19.5319 38.6136 21.1659 37.9123 21.6679C37.3383 20.1124 39.727 11.8756 44.5992 8.57001C45.9335 7.66312 44.996 4.83402 46.6011 4.70043C47.0089 4.6637 47.5503 4.80481 47.5509 5.21136C47.5291 5.39946 47.44 5.57323 47.3 5.70049Z" fill="url(#paint20_radial_333_4446)"/>
<path style="mix-blend-mode:screen" opacity="0.8" d="M36.031 8.62458C29.9022 12.9648 28.5477 24.6734 28.2783 25.0541C27.6629 25.7748 26.9633 26.419 26.1946 26.9728C25.6246 25.4103 27.1937 11.53 31.908 9.47093C33.228 8.96943 34.6201 8.68367 36.031 8.62458Z" fill="url(#paint21_radial_333_4446)"/>
<path style="mix-blend-mode:screen" opacity="0.7" d="M29.8666 8.90156C22.7659 13.6522 23.8482 27.3384 23.6047 27.7477C23.0508 28.537 22.3821 29.2388 21.6207 29.8298C20.7918 27.8136 19.322 13.1296 26.0454 9.95031C27.2639 9.4239 28.5501 9.07089 29.8666 8.90156Z" fill="url(#paint22_radial_333_4446)"/>
<path style="mix-blend-mode:screen" opacity="0.6" d="M21.7404 10.148C18.6395 13.2734 18.071 18.3555 18.3967 22.9414C18.5936 26.0262 19.258 28.8184 19.4826 30.7889C19.5436 31.3041 17.0511 31.8304 16.4802 32.499C15.2245 30.7282 12.1421 18.0879 17.96 13.4701C19.23 12.4617 21.8776 10.0198 21.7404 10.148Z" fill="url(#paint23_radial_333_4446)"/>
</g>
<g style="mix-blend-mode:multiply" opacity="0.2">
<path opacity="0.8" d="M48.6089 23.833C48.5523 23.8207 48.4933 23.8248 48.439 23.8448C48.8395 23.6546 51.5254 20.9448 53.0164 16.489C52.6308 16.669 52.4829 16.7165 52.2723 16.6261L52.0815 16.5421L51.9788 16.1761L52.0522 16.012C52.8732 14.2982 52.9832 11.6894 52.3279 9.35526C52.0587 8.39609 50.996 6.01483 49.7035 4.9003L49.5094 4.65572C53.1529 6.71921 53.9541 12.9779 52.4172 16.1846C52.3264 16.3716 53.7274 15.5537 53.6689 15.7495C52.1611 21.0176 48.8479 24.2803 48.5067 24.2565L48.6089 23.833Z" fill="url(#paint24_linear_333_4446)"/>
<path opacity="0.8" d="M20.3911 39.4522C24.0434 42.0575 30.8199 42.7271 34.7935 40.9657C34.2353 40.4744 33.7322 39.9237 33.2931 39.3234L32.9155 38.7655L33.5788 38.639C37.3917 37.7921 40.8836 35.8741 43.6448 33.1099C43.1259 32.9168 42.6499 32.6237 42.2438 32.2471L41.8538 31.7943L42.3857 31.5613C44.9866 30.4424 47.7838 27.3843 49.2634 24.8456L48.4661 24.6866L48.5359 24.2544C49.0096 24.3247 49.4794 24.4022 49.9484 24.456C48.55 27.241 45.4114 30.7 42.5675 31.911C43.1097 32.339 43.7236 32.6669 44.3805 32.8794C41.5208 35.9868 37.7719 38.1338 33.6459 39.0269C34.1981 39.7691 34.8416 40.4385 35.5612 41.0193C31.3396 43.3229 23.9317 42.4896 20.1195 39.7616C18.7398 38.8816 17.6571 37.6054 17.0129 36.1C18.0561 37.135 19.0631 38.5091 20.3911 39.4522Z" fill="url(#paint25_linear_333_4446)"/>
</g>
</g>
<defs>
<filter id="filter0_f_333_4446" x="1.56714" y="0.614609" width="56.1445" height="45.8051" filterUnits="userSpaceOnUse" color-interpolation-filters="sRGB">
<feFlood flood-opacity="0" result="BackgroundImageFix"/>
<feBlend mode="normal" in="SourceGraphic" in2="BackgroundImageFix" result="shape"/>
<feGaussianBlur stdDeviation="2" result="effect1_foregroundBlur_333_4446"/>
</filter>
<linearGradient id="paint0_linear_333_4446" x1="14.5056" y1="31.4445" x2="56.007" y2="16.8414" gradientUnits="userSpaceOnUse">
<stop stop-color="#88C718"/>
<stop offset="0.26" stop-color="#83C418"/>
<stop offset="0.59" stop-color="#74BA16"/>
<stop offset="0.95" stop-color="#5AAA14"/>
<stop offset="1" stop-color="#56A714"/>
</linearGradient>
<linearGradient id="paint1_linear_333_4446" x1="12.7157" y1="31.868" x2="39.246" y2="17.0448" gradientUnits="userSpaceOnUse">
<stop stop-color="#6FBD00"/>
<stop offset="1" stop-color="#90C900"/>
</linearGradient>
<linearGradient id="paint2_linear_333_4446" x1="22.2767" y1="41.5059" x2="50.4097" y2="15.0419" gradientUnits="userSpaceOnUse">
<stop stop-color="white"/>
<stop offset="1" stop-color="#377A00"/>
</linearGradient>
<linearGradient id="paint3_linear_333_4446" x1="8.02964" y1="33.606" x2="36.4528" y2="12.6496" gradientUnits="userSpaceOnUse">
<stop stop-color="white"/>
<stop offset="1" stop-color="#377A00"/>
</linearGradient>
<linearGradient id="paint4_linear_333_4446" x1="24.3632" y1="7.52713" x2="35.5783" y2="23.9333" gradientUnits="userSpaceOnUse">
<stop stop-color="white"/>
<stop offset="1" stop-color="#377A00"/>
</linearGradient>
<linearGradient id="paint5_linear_333_4446" x1="26.3498" y1="13.3276" x2="22.9083" y2="28.3898" gradientUnits="userSpaceOnUse">
<stop stop-color="#5FA200"/>
<stop offset="0.15" stop-color="#6DA800"/>
<stop offset="0.34" stop-color="#7CAE00"/>
<stop offset="1" stop-color="#5FA200"/>
</linearGradient>
<linearGradient id="paint6_linear_333_4446" x1="20.7754" y1="18.2096" x2="17.7872" y2="30.2191" gradientUnits="userSpaceOnUse">
<stop stop-color="#5FA200"/>
<stop offset="0.15" stop-color="#6DA800"/>
<stop offset="0.34" stop-color="#7CAE00"/>
<stop offset="1" stop-color="#5FA200"/>
</linearGradient>
<linearGradient id="paint7_linear_333_4446" x1="34.2255" y1="13.8973" x2="26.4558" y2="25.4159" gradientUnits="userSpaceOnUse">
<stop stop-color="#5FA200"/>
<stop offset="0.15" stop-color="#6DA800"/>
<stop offset="0.34" stop-color="#7CAE00"/>
<stop offset="1" stop-color="#5FA200"/>
</linearGradient>
<linearGradient id="paint8_linear_333_4446" x1="39.231" y1="11.2987" x2="36.1056" y2="23.3729" gradientUnits="userSpaceOnUse">
<stop stop-color="#5FA200"/>
<stop offset="0.15" stop-color="#6DA800"/>
<stop offset="0.34" stop-color="#7CAE00"/>
<stop offset="1" stop-color="#5FA200"/>
</linearGradient>
<linearGradient id="paint9_linear_333_4446" x1="43.4032" y1="11.8418" x2="42.9247" y2="20.1707" gradientUnits="userSpaceOnUse">
<stop stop-color="#5FA200"/>
<stop offset="0.15" stop-color="#6DA800"/>
<stop offset="0.34" stop-color="#7CAE00"/>
<stop offset="1" stop-color="#5FA200"/>
</linearGradient>
<linearGradient id="paint10_linear_333_4446" x1="48.3675" y1="7.75706" x2="44.5347" y2="15.8899" gradientUnits="userSpaceOnUse">
<stop stop-color="#5FA200"/>
<stop offset="0.15" stop-color="#6DA800"/>
<stop offset="0.34" stop-color="#7CAE00"/>
<stop offset="1" stop-color="#5FA200"/>
</linearGradient>
<linearGradient id="paint11_linear_333_4446" x1="38.243" y1="37.6284" x2="26.9889" y2="29.4289" gradientUnits="userSpaceOnUse">
<stop stop-color="#5FA200"/>
<stop offset="0.15" stop-color="#6DA800"/>
<stop offset="0.34" stop-color="#7CAE00"/>
<stop offset="1" stop-color="#5FA200"/>
</linearGradient>
<linearGradient id="paint12_linear_333_4446" x1="33.3871" y1="38.6401" x2="22.3421" y2="33.0227" gradientUnits="userSpaceOnUse">
<stop stop-color="#5FA200"/>
<stop offset="0.15" stop-color="#6DA800"/>
<stop offset="0.34" stop-color="#7CAE00"/>
<stop offset="1" stop-color="#5FA200"/>
</linearGradient>
<linearGradient id="paint13_linear_333_4446" x1="29.2371" y1="40.1889" x2="17.8172" y2="34.6859" gradientUnits="userSpaceOnUse">
<stop stop-color="#5FA200"/>
<stop offset="0.15" stop-color="#6DA800"/>
<stop offset="0.34" stop-color="#7CAE00"/>
<stop offset="1" stop-color="#5FA200"/>
</linearGradient>
<linearGradient id="paint14_linear_333_4446" x1="41.6821" y1="32.8413" x2="30.2339" y2="28.7461" gradientUnits="userSpaceOnUse">
<stop stop-color="#5FA200"/>
<stop offset="0.15" stop-color="#6DA800"/>
<stop offset="0.34" stop-color="#7CAE00"/>
<stop offset="1" stop-color="#5FA200"/>
</linearGradient>
<linearGradient id="paint15_linear_333_4446" x1="47.467" y1="27.5738" x2="36.5467" y2="24.6951" gradientUnits="userSpaceOnUse">
<stop stop-color="#5FA200"/>
<stop offset="0.15" stop-color="#6DA800"/>
<stop offset="0.34" stop-color="#7CAE00"/>
<stop offset="1" stop-color="#5FA200"/>
</linearGradient>
<linearGradient id="paint16_linear_333_4446" x1="50.5176" y1="21.1112" x2="41.9375" y2="20.3957" gradientUnits="userSpaceOnUse">
<stop stop-color="#5FA200"/>
<stop offset="0.15" stop-color="#6DA800"/>
<stop offset="0.34" stop-color="#7CAE00"/>
<stop offset="1" stop-color="#5FA200"/>
</linearGradient>
<linearGradient id="paint17_linear_333_4446" x1="52.5718" y1="16.8695" x2="44.1341" y2="18.536" gradientUnits="userSpaceOnUse">
<stop stop-color="#5FA200"/>
<stop offset="0.15" stop-color="#6DA800"/>
<stop offset="0.34" stop-color="#7CAE00"/>
<stop offset="1" stop-color="#5FA200"/>
</linearGradient>
<linearGradient id="paint18_linear_333_4446" x1="8.42524" y1="34.5787" x2="48.6344" y2="11.7262" gradientUnits="userSpaceOnUse">
<stop stop-color="white"/>
<stop offset="0.02" stop-color="#FAFCF8"/>
<stop offset="0.23" stop-color="#C0D5AE"/>
<stop offset="0.44" stop-color="#8FB470"/>
<stop offset="0.62" stop-color="#699B40"/>
<stop offset="0.78" stop-color="#4E891D"/>
<stop offset="0.91" stop-color="#3D7E08"/>
<stop offset="1" stop-color="#377A00"/>
</linearGradient>
<radialGradient id="paint19_radial_333_4446" cx="0" cy="0" r="1" gradientUnits="userSpaceOnUse" gradientTransform="translate(39.2897 14.258) rotate(-119.063) scale(11.7755 11.7616)">
<stop stop-color="#7CAE00"/>
<stop offset="0.11" stop-color="#76A600"/>
<stop offset="0.29" stop-color="#669000"/>
<stop offset="0.5" stop-color="#4D6B00"/>
<stop offset="0.75" stop-color="#293900"/>
<stop offset="1"/>
</radialGradient>
<radialGradient id="paint20_radial_333_4446" cx="0" cy="0" r="1" gradientUnits="userSpaceOnUse" gradientTransform="translate(43.2746 11.5658) rotate(-119.063) scale(8.29181 8.28203)">
<stop stop-color="#7CAE00"/>
<stop offset="0.11" stop-color="#76A600"/>
<stop offset="0.29" stop-color="#669000"/>
<stop offset="0.5" stop-color="#4D6B00"/>
<stop offset="0.75" stop-color="#293900"/>
<stop offset="1"/>
</radialGradient>
<radialGradient id="paint21_radial_333_4446" cx="0" cy="0" r="1" gradientUnits="userSpaceOnUse" gradientTransform="translate(33.8595 14.6573) rotate(-119.063) scale(12.6392 12.6243)">
<stop stop-color="#7CAE00"/>
<stop offset="0.11" stop-color="#76A600"/>
<stop offset="0.29" stop-color="#669000"/>
<stop offset="0.5" stop-color="#4D6B00"/>
<stop offset="0.75" stop-color="#293900"/>
<stop offset="1"/>
</radialGradient>
<radialGradient id="paint22_radial_333_4446" cx="0" cy="0" r="1" gradientUnits="userSpaceOnUse" gradientTransform="translate(28.3181 16.3039) rotate(-119.277) scale(16.3501 12.3614)">
<stop stop-color="#7CAE00"/>
<stop offset="0.11" stop-color="#76A600"/>
<stop offset="0.29" stop-color="#669000"/>
<stop offset="0.5" stop-color="#4D6B00"/>
<stop offset="0.75" stop-color="#293900"/>
<stop offset="1"/>
</radialGradient>
<radialGradient id="paint23_radial_333_4446" cx="0" cy="0" r="1" gradientUnits="userSpaceOnUse" gradientTransform="translate(21.5909 18.3817) rotate(-132.215) scale(17.4234 13.2785)">
<stop stop-color="#7CAE00"/>
<stop offset="0.11" stop-color="#76A600"/>
<stop offset="0.29" stop-color="#669000"/>
<stop offset="0.5" stop-color="#4D6B00"/>
<stop offset="0.75" stop-color="#293900"/>
<stop offset="1"/>
</radialGradient>
<linearGradient id="paint24_linear_333_4446" x1="48.4367" y1="13.4741" x2="55.137" y2="21.4338" gradientUnits="userSpaceOnUse">
<stop stop-color="white"/>
<stop offset="1" stop-color="#377A00"/>
</linearGradient>
<linearGradient id="paint25_linear_333_4446" x1="31.256" y1="27.9388" x2="37.9634" y2="35.9025" gradientUnits="userSpaceOnUse">
<stop stop-color="white"/>
<stop offset="1" stop-color="#377A00"/>
</linearGradient>
</defs>
</svg>
