<svg width="120" height="124" viewBox="0 0 120 124" fill="none" xmlns="http://www.w3.org/2000/svg">
<path d="M80.1142 71.8769C79.1419 78.3126 71.3543 85.3005 68.4494 87.1538C68.9794 85.9784 69.2766 84.7111 69.3246 83.422C66.6422 85.6141 61.9014 89.244 59.351 90.3258C59.9782 88.9312 60.2684 87.408 60.1982 85.8795C57.5972 87.458 45.9615 94.3216 45.6288 94.831C45.9932 93.5719 46.2257 92.2781 46.3225 90.9705C43.8635 92.5849 39.7562 96.6716 41.2537 102.919C34.6764 101.785 30.3746 92.6267 31.1593 87.0362C31.2063 86.7144 29.5044 88.5968 29.499 88.2771C29.2545 79.7094 32.658 73.2723 33.1705 73.1514C32.4309 73.2706 31.6938 73.3773 30.9691 73.5191C31.7363 68.7051 34.7792 62.063 38.4462 58.9119C37.4354 58.5303 36.3649 58.3318 35.285 58.3259C38.0783 52.3399 42.6519 47.3651 48.3808 44.0813C47.2064 43.2361 45.9303 42.5425 44.5826 42.0169C49.7868 36.585 61.2257 34.3225 68.2001 36.5859C71.0945 37.5196 73.4524 38.8162 75.1855 41.4067C75.8628 42.4383 77.4896 42.146 78.3259 42.9116C78.8395 43.3825 78.646 43.9729 78.9272 44.4995C79.435 45.3478 80.1757 46.0322 81.0611 46.4713C82.1578 47.1492 83.0383 48.1263 83.599 49.2877C85.6357 52.9077 86.5705 57.0434 86.2882 61.1855C85.7479 66.2259 84.0897 71.0807 81.4345 75.3957C81.1104 74.1825 80.6682 73.0039 80.1142 71.8769Z" fill="url(#paint0_linear_333_4380)"/>
<path d="M89.4305 32.8622C90.4702 32.2657 91.9061 34.0923 91.0352 34.8473C80.7181 41.4105 71.0411 48.9293 62.1315 57.3047C54.8485 64.2416 44.8089 75.5852 39.2325 84.9575C36.5224 89.5169 35.6483 98.151 40.8654 102.753C39.072 101.776 33.2879 95.2935 38.5234 84.2054C41.6912 77.5567 49.7807 67.4719 56.9659 59.845C66.6968 49.6132 77.5925 40.5573 89.4305 32.8622Z" fill="url(#paint1_linear_333_4380)"/>
<g style="mix-blend-mode:multiply" opacity="0.7">
<path opacity="0.8" d="M56.9883 59.8305C49.7806 67.4722 41.6535 77.5817 38.5459 84.1909C33.6495 94.5499 38.3936 100.907 40.4926 102.481L41.0041 102.9C34.5955 101.547 30.4397 92.5949 31.2139 87.0867C31.2609 86.7649 29.5589 88.6474 29.5535 88.3277C29.309 79.76 32.7125 73.3229 33.225 73.2019C32.4854 73.3211 31.7484 73.4279 31.0236 73.5697C31.7909 68.7557 34.8338 62.1136 38.5007 58.9625C37.4899 58.5808 36.4194 58.3824 35.3395 58.3764C38.1329 52.3904 42.7065 47.4156 48.4354 44.1318C47.261 43.2867 45.9848 42.5931 44.6372 42.0675C49.8414 36.6356 61.2803 34.373 68.2547 36.6365C71.1491 37.5701 73.507 38.8668 75.2401 41.4573C75.5389 41.8507 75.9698 42.1228 76.4532 42.2232C69.5495 47.6157 63.0443 53.5001 56.9883 59.8305Z" fill="url(#paint2_linear_333_4380)"/>
<path opacity="0.6" d="M80.1142 71.8771C79.1418 78.3128 71.3542 85.3007 68.4494 87.154C68.9794 85.9786 69.2766 84.7113 69.3245 83.4222C66.6422 85.6144 61.9014 89.2442 59.351 90.326C59.9782 88.9314 60.2684 87.4083 60.1982 85.8798C57.5972 87.4582 45.9615 94.3218 45.6287 94.8313C45.9932 93.5721 46.2257 92.2783 46.3225 90.9707C43.8635 92.5851 39.7562 96.6719 41.2536 102.919L41.039 102.92L40.5105 102.426C35.6733 97.747 36.578 89.4053 39.2274 84.9503C44.8039 75.578 54.8613 64.1796 62.1265 57.2976C67.3674 52.3624 72.8804 47.7247 78.6397 43.4062C78.7067 43.7806 78.8046 44.1489 78.9321 44.5073C79.4399 45.3555 80.1807 46.04 81.0661 46.479C82.1627 47.1569 83.0433 48.1341 83.6039 49.2954C85.6406 52.9155 86.5754 57.0512 86.2931 61.1933C85.7528 66.2337 84.0946 71.0885 81.4394 75.4035C81.1142 74.1875 80.6703 73.0064 80.1142 71.8771Z" fill="url(#paint3_linear_333_4380)"/>
<path opacity="0.8" d="M80.1142 71.8771C79.1418 78.3128 71.3542 85.3007 68.4494 87.154C68.9794 85.9786 69.2766 84.7113 69.3245 83.4222C66.6422 85.6144 61.9014 89.2442 59.351 90.326C59.9782 88.9314 60.2684 87.4083 60.1982 85.8798C57.5972 87.4582 45.9615 94.3218 45.6287 94.8313C45.9932 93.5721 46.2257 92.2783 46.3225 90.9707C43.8635 92.5851 39.7562 96.6719 41.2536 102.919L41.039 102.92L40.5105 102.426C35.6733 97.747 36.578 89.4053 39.2274 84.9503C44.8039 75.578 54.8613 64.1796 62.1265 57.2976C67.3674 52.3624 72.8804 47.7247 78.6397 43.4062C78.7067 43.7806 78.8046 44.1489 78.9321 44.5073C79.4399 45.3555 80.1807 46.04 81.0661 46.479C82.1627 47.1569 83.0433 48.1341 83.6039 49.2954C85.6406 52.9155 86.5754 57.0512 86.2931 61.1933C85.7528 66.2337 84.0946 71.0885 81.4394 75.4035C81.1142 74.1875 80.6703 73.0064 80.1142 71.8771Z" fill="url(#paint4_linear_333_4380)"/>
</g>
<mask id="mask0_333_4380" style="mask-type:luminance" maskUnits="userSpaceOnUse" x="29" y="35" width="58" height="68">
<path d="M80.1142 71.8769C79.1419 78.3126 71.3543 85.3005 68.4494 87.1538C68.9794 85.9784 69.2766 84.7111 69.3246 83.422C66.6422 85.6141 61.9014 89.244 59.351 90.3258C59.9782 88.9312 60.2684 87.408 60.1982 85.8795C57.5972 87.458 45.9615 94.3216 45.6288 94.831C45.9932 93.5719 46.2257 92.2781 46.3225 90.9705C43.8635 92.5849 39.7562 96.6716 41.2537 102.919C34.6764 101.785 30.3746 92.6267 31.1593 87.0362C31.2063 86.7144 29.5044 88.5968 29.499 88.2771C29.2545 79.7094 32.658 73.2723 33.1705 73.1514C32.4309 73.2706 31.6938 73.3773 30.9691 73.5191C31.7363 68.7051 34.7792 62.063 38.4462 58.9119C37.4354 58.5303 36.3649 58.3318 35.285 58.3259C38.0783 52.3399 42.6519 47.3651 48.3808 44.0813C47.2064 43.2361 45.9303 42.5425 44.5826 42.0169C49.7868 36.585 61.2257 34.3225 68.2001 36.5859C71.0945 37.5196 73.4524 38.8162 75.1855 41.4067C75.8628 42.4383 77.4896 42.146 78.3259 42.9116C78.8395 43.3825 78.646 43.9729 78.9272 44.4995C79.435 45.3478 80.1757 46.0322 81.0611 46.4713C82.1578 47.1492 83.0383 48.1263 83.599 49.2877C85.6357 52.9077 86.5705 57.0434 86.2882 61.1855C85.7479 66.2259 84.0897 71.0807 81.4345 75.3957C81.1104 74.1825 80.6682 73.0039 80.1142 71.8769Z" fill="white"/>
</mask>
<g mask="url(#mask0_333_4380)">
<g style="mix-blend-mode:screen" opacity="0.7">
<path opacity="0.6" d="M68.4677 50.4832C68.0559 51.2492 66.9909 51.9054 67.2848 52.7792C74.6041 74.7942 72.2158 77.8277 71.2886 80.7424C76.6448 71.8379 67.065 55.1325 69.5344 49.5673C69.2971 49.6254 69.0769 49.7386 68.8916 49.8977C68.7063 50.0569 68.5611 50.2574 68.4677 50.4832Z" fill="url(#paint5_linear_333_4380)"/>
<path opacity="0.6" d="M72.5361 48.9436C72.1307 48.3261 72.8923 47.5029 73.099 46.7852C73.1361 46.5777 73.218 46.3809 73.339 46.2084C73.4599 46.036 73.617 45.892 73.7994 45.7866C72.7631 50.8957 83.3452 61.9649 80.5495 70.5243C80.7908 67.9414 82.1832 64.8829 72.5361 48.9436Z" fill="url(#paint6_linear_333_4380)"/>
<path opacity="0.6" d="M61.8015 58.1141C61.654 57.3813 62.6281 56.8818 63.0589 56.2757C63.1704 56.0963 63.3197 55.9433 63.4962 55.8273C63.6728 55.7114 63.8725 55.6353 64.0816 55.6042C61.3747 60.0538 67.56 77.1454 62.0456 84.2356C63.1367 81.849 65.4508 76.375 61.8015 58.1141Z" fill="url(#paint7_linear_333_4380)"/>
<path opacity="0.6" d="M52.1297 66.6087C52.4715 66.2442 52.8058 65.8847 53.1427 65.5126C53.228 72.4284 56.2142 84.336 51.8554 89.8917C52.8754 87.6919 55.0095 82.6486 52.1297 66.6087Z" fill="url(#paint8_linear_333_4380)"/>
<path opacity="0.6" d="M44.8009 75.2459C45.0147 74.9978 45.8407 74.2399 46.0545 73.9918C46.4044 77.8029 49.4418 86.7891 46.7514 90.6244C47.3053 89.1077 48.4177 85.7373 44.8009 75.2459Z" fill="url(#paint9_linear_333_4380)"/>
<path opacity="0.3" d="M41.3576 81.2779C41.1169 81.0588 40.7836 82.0427 40.5154 81.8309C40.0417 84.8465 38.1568 94.6291 40.5763 98.7732C39.6774 96.1092 39.6515 90.4151 41.3576 81.2779Z" fill="url(#paint10_linear_333_4380)"/>
</g>
<g style="mix-blend-mode:screen" opacity="0.7">
<path opacity="0.7" d="M61.7414 55.4491C46.6286 47.1823 44.0362 49.3476 41.6304 50.0759C47.5485 46.1904 56.4001 51.9195 62.7237 54.4701C62.3676 54.7664 62.0389 55.094 61.7414 55.4491Z" fill="url(#paint11_linear_333_4380)"/>
<path opacity="0.7" d="M67.4368 51.257C67.2605 51.5129 67.0792 51.7612 66.8678 52.0293C66.0669 51.9732 65.4334 51.8935 65.2202 51.6671C58.7938 44.9276 50.3048 42.1931 47.7015 42.1782C54.8277 40.6244 62.7378 47.9845 68.2502 50.529C67.9618 50.7516 67.69 50.9949 67.4368 51.257Z" fill="url(#paint12_linear_333_4380)"/>
<path opacity="0.7" d="M72.7983 45.8189C72.5691 46.0674 72.358 46.332 72.1667 46.6107C72.0136 46.5907 71.867 46.5357 71.7384 46.4501C64.9362 40.3021 56.1773 38.025 53.516 38.1021C60.3832 36.4489 68.185 42.4147 73.8725 44.8981C73.4834 45.1669 73.1234 45.4755 72.7983 45.8189Z" fill="url(#paint13_linear_333_4380)"/>
<path opacity="0.7" d="M59.513 58.4638L59.1201 59.0127C45.7786 55.919 40.8501 57.6894 38.7132 58.4996C44.3381 54.8066 52.8695 56.3602 60.532 57.59C60.1672 57.8506 59.8262 58.143 59.513 58.4638Z" fill="url(#paint14_linear_333_4380)"/>
<path opacity="0.7" d="M52.685 66.0608C53.0019 65.6911 53.2887 65.3412 53.6557 64.9494C47.5058 66.0561 36.9393 65.386 31.9779 70.3353C33.9509 68.9968 38.4344 66.1716 52.685 66.0608Z" fill="url(#paint15_linear_333_4380)"/>
<path opacity="0.7" d="M45.2705 74.4202C45.3923 74.114 46.1803 73.0686 46.3246 72.7476C42.7862 74.144 32.9153 75.5495 30.7568 79.736C31.793 78.5277 34.2978 75.9996 45.2705 74.4202Z" fill="url(#paint16_linear_333_4380)"/>
<path opacity="0.7" d="M41.9018 80.0911C35.7914 82.8314 32.2315 85.2441 30.7473 87.0483C32.5108 83.7353 38.6149 80.8052 42.485 79.0616C42.2578 79.3851 42.0624 79.7298 41.9018 80.0911Z" fill="url(#paint17_linear_333_4380)"/>
</g>
</g>
<path opacity="0.6" d="M89.4305 32.8622C90.4702 32.2657 91.9061 34.0923 91.0352 34.8473C80.7181 41.4105 71.0411 48.9293 62.1315 57.3047C54.8485 64.2416 44.8089 75.5852 39.2325 84.9575C36.5224 89.5169 35.6483 98.151 40.8654 102.753C39.072 101.776 33.2879 95.2935 38.5234 84.2054C41.6912 77.5567 49.7807 67.4719 56.9659 59.845C66.6968 49.6132 77.5925 40.5573 89.4305 32.8622Z" fill="url(#paint18_linear_333_4380)"/>
<mask id="mask1_333_4380" style="mask-type:luminance" maskUnits="userSpaceOnUse" x="29" y="35" width="58" height="68">
<path d="M80.1142 71.8769C79.1419 78.3126 71.3543 85.3005 68.4494 87.1538C68.9794 85.9784 69.2766 84.7111 69.3246 83.422C66.6422 85.6141 61.9014 89.244 59.351 90.3258C59.9782 88.9312 60.2684 87.408 60.1982 85.8795C57.5972 87.458 45.9615 94.3216 45.6288 94.831C45.9932 93.5719 46.2257 92.2781 46.3225 90.9705C43.8635 92.5849 39.7562 96.6716 41.2537 102.919C34.6764 101.785 30.3746 92.6267 31.1593 87.0362C31.2063 86.7144 29.5044 88.5968 29.499 88.2771C29.2545 79.7094 32.658 73.2723 33.1705 73.1514C32.4309 73.2706 31.6938 73.3773 30.9691 73.5191C31.7363 68.7051 34.7792 62.063 38.4462 58.9119C37.4354 58.5303 36.3649 58.3318 35.285 58.3259C38.0783 52.3399 42.6519 47.3651 48.3808 44.0813C47.2064 43.2361 45.9303 42.5425 44.5826 42.0169C49.7868 36.585 61.2257 34.3225 68.2001 36.5859C71.0945 37.5196 73.4524 38.8162 75.1855 41.4067C75.8628 42.4383 77.4896 42.146 78.3259 42.9116C78.8395 43.3825 78.646 43.9729 78.9272 44.4995C79.435 45.3478 80.1757 46.0322 81.0611 46.4713C82.1578 47.1492 83.0383 48.1263 83.599 49.2877C85.6357 52.9077 86.5705 57.0434 86.2882 61.1855C85.7479 66.2259 84.0897 71.0807 81.4345 75.3957C81.1104 74.1825 80.6682 73.0039 80.1142 71.8769Z" fill="white"/>
</mask>
<g mask="url(#mask1_333_4380)">
<path style="mix-blend-mode:screen" opacity="0.8" d="M51.0123 91.7706C51.4638 90.6553 51.8778 89.5321 52.2521 88.3812C52.6602 87.1811 52.9711 85.95 53.1819 84.6998C53.3615 83.392 53.4558 82.0739 53.4643 80.7536C53.5378 77.4727 52.4958 69.8704 52.7099 69.1802C52.924 68.4901 56.6553 64.6503 57.4637 63.5376C59.0555 65.5851 60.0988 72.5831 60.0233 77.7296C59.9746 80.2615 58.5774 85.2305 57.5716 87.5503C56.6502 89.9415 54.8375 91.881 52.5148 92.9608C51.9241 93.2086 51.0502 93.2543 50.8569 92.6485C50.8049 92.3466 50.8598 92.0361 51.0123 91.7706Z" fill="url(#paint19_radial_333_4380)"/>
<path style="mix-blend-mode:screen" opacity="0.4" d="M43.8387 100.317C44.2902 99.2014 44.9299 95.9797 45.4535 94.8924C49.3499 86.7309 45.2999 78.3989 45.514 77.7087C45.7281 77.0186 49.472 73.1489 50.2802 72.0687C51.872 74.1162 52.2077 87.527 46.5077 94.7606C44.9474 96.7441 47.6838 100.518 45.3538 101.477C44.7632 101.725 43.8893 101.771 43.696 101.165C43.6395 100.874 43.6902 100.573 43.8387 100.317Z" fill="url(#paint20_radial_333_4380)"/>
<path style="mix-blend-mode:screen" opacity="0.8" d="M59.2566 90.625C66.3406 81.2543 62.8201 63.1566 63.0417 62.4616C63.6183 61.0959 64.3564 59.8045 65.2405 58.615C66.8297 60.675 71.0576 82.1119 65.0031 87.4124C63.2724 88.7847 61.3321 89.8694 59.2566 90.625Z" fill="url(#paint21_radial_333_4380)"/>
<path style="mix-blend-mode:screen" opacity="0.7" d="M68.3162 87.2954C76.6551 76.8528 68.5659 56.9597 68.7353 56.2343C69.1876 54.7954 69.8526 53.4326 70.7082 52.1912C72.8979 54.8051 82.037 76.0024 73.5171 83.9238C71.9495 85.2852 70.1988 86.42 68.3162 87.2954Z" fill="url(#paint22_radial_333_4380)"/>
<path style="mix-blend-mode:screen" opacity="0.6" d="M79.842 81.5922C82.9865 75.4653 81.4294 67.6192 78.7741 60.9361C77.0209 56.43 74.7093 52.5814 73.442 49.7497C73.1073 49.0105 76.5744 47.0466 77.1092 45.7795C79.8193 47.8256 90.3957 65.2129 83.9065 74.8505C82.4902 76.9549 79.6981 81.8483 79.842 81.5922Z" fill="url(#paint23_radial_333_4380)"/>
</g>
<g style="mix-blend-mode:multiply" opacity="0.2">
<path opacity="0.8" d="M33.308 73.9016C33.3982 73.8932 33.4842 73.8592 33.5557 73.8036C33.0485 74.2767 30.3262 79.5877 30.2116 86.9365C30.7012 86.4857 30.8993 86.3449 31.256 86.3801L31.5802 86.415L31.9065 86.912L31.8748 87.1914C31.4615 90.1351 32.532 94.0766 34.6133 97.2467C35.4685 98.5493 38.1796 101.597 40.634 102.647L41.0391 102.92C34.6304 101.567 30.4746 92.6149 31.2488 87.1067C31.2958 86.785 29.5939 88.6674 29.5885 88.3477C29.344 79.78 32.74 73.3478 33.2599 73.222L33.308 73.9016Z" fill="url(#paint24_linear_333_4380)"/>
<path opacity="0.8" d="M67.9886 37.2634C61.3106 35.1071 50.8904 37.3151 45.7995 41.8213C46.8642 42.2897 47.8748 42.8727 48.8135 43.56L49.6405 44.2131L48.7113 44.7155C43.4272 47.7823 39.1286 52.2941 36.3197 57.7218C37.1847 57.7641 38.033 57.976 38.8168 58.3452L39.6124 58.8358L38.9296 59.4349C35.5813 62.3337 32.8577 68.2166 31.853 72.7016L33.1169 72.5614L33.2174 73.239C32.4778 73.3582 31.7407 73.465 31.016 73.6068C31.7832 68.7928 34.8261 62.1506 38.4931 58.9996C37.4823 58.6179 36.4118 58.4195 35.3319 58.4135C38.1252 52.4275 42.6988 47.4527 48.4277 44.1689C47.2533 43.3237 45.9772 42.6301 44.6295 42.1046C49.8337 36.6727 61.2726 34.4101 68.247 36.6735C70.7205 37.3328 72.9386 38.7232 74.6113 40.663C72.5663 39.6134 70.4148 38.0412 67.9886 37.2634Z" fill="url(#paint25_linear_333_4380)"/>
</g>
<defs>
<linearGradient id="paint0_linear_333_4380" x1="80.5523" y1="46.4174" x2="25.586" y2="87.8258" gradientUnits="userSpaceOnUse">
<stop stop-color="#88C718"/>
<stop offset="0.26" stop-color="#83C418"/>
<stop offset="0.59" stop-color="#74BA16"/>
<stop offset="0.95" stop-color="#5AAA14"/>
<stop offset="1" stop-color="#56A714"/>
</linearGradient>
<linearGradient id="paint1_linear_333_4380" x1="83.0207" y1="44.9391" x2="50.4793" y2="79.5923" gradientUnits="userSpaceOnUse">
<stop stop-color="#6FBD00"/>
<stop offset="1" stop-color="#90C900"/>
</linearGradient>
<linearGradient id="paint2_linear_333_4380" x1="64.2057" y1="35.0935" x2="34.7826" y2="87.8607" gradientUnits="userSpaceOnUse">
<stop stop-color="white"/>
<stop offset="1" stop-color="#377A00"/>
</linearGradient>
<linearGradient id="paint3_linear_333_4380" x1="89.185" y1="40.1308" x2="56.7235" y2="84.8237" gradientUnits="userSpaceOnUse">
<stop stop-color="white"/>
<stop offset="1" stop-color="#377A00"/>
</linearGradient>
<linearGradient id="paint4_linear_333_4380" x1="77.1719" y1="86.7408" x2="52.6884" y2="67.5868" gradientUnits="userSpaceOnUse">
<stop stop-color="white"/>
<stop offset="1" stop-color="#377A00"/>
</linearGradient>
<linearGradient id="paint5_linear_333_4380" x1="71.4653" y1="79.0324" x2="69.4698" y2="54.9473" gradientUnits="userSpaceOnUse">
<stop stop-color="#5FA200"/>
<stop offset="0.15" stop-color="#6DA800"/>
<stop offset="0.34" stop-color="#7CAE00"/>
<stop offset="1" stop-color="#5FA200"/>
</linearGradient>
<linearGradient id="paint6_linear_333_4380" x1="77.4663" y1="69.1162" x2="76.2393" y2="49.797" gradientUnits="userSpaceOnUse">
<stop stop-color="#5FA200"/>
<stop offset="0.15" stop-color="#6DA800"/>
<stop offset="0.34" stop-color="#7CAE00"/>
<stop offset="1" stop-color="#5FA200"/>
</linearGradient>
<linearGradient id="paint7_linear_333_4380" x1="59.4534" y1="81.9096" x2="65.5877" y2="61.06" gradientUnits="userSpaceOnUse">
<stop stop-color="#5FA200"/>
<stop offset="0.15" stop-color="#6DA800"/>
<stop offset="0.34" stop-color="#7CAE00"/>
<stop offset="1" stop-color="#5FA200"/>
</linearGradient>
<linearGradient id="paint8_linear_333_4380" x1="53.2201" y1="88.152" x2="52.167" y2="68.6714" gradientUnits="userSpaceOnUse">
<stop stop-color="#5FA200"/>
<stop offset="0.15" stop-color="#6DA800"/>
<stop offset="0.34" stop-color="#7CAE00"/>
<stop offset="1" stop-color="#5FA200"/>
</linearGradient>
<linearGradient id="paint9_linear_333_4380" x1="46.7428" y1="89.3165" x2="43.5155" y2="76.6722" gradientUnits="userSpaceOnUse">
<stop stop-color="#5FA200"/>
<stop offset="0.15" stop-color="#6DA800"/>
<stop offset="0.34" stop-color="#7CAE00"/>
<stop offset="1" stop-color="#5FA200"/>
</linearGradient>
<linearGradient id="paint10_linear_333_4380" x1="41.274" y1="97.7551" x2="43.1405" y2="83.816" gradientUnits="userSpaceOnUse">
<stop stop-color="#5FA200"/>
<stop offset="0.15" stop-color="#6DA800"/>
<stop offset="0.34" stop-color="#7CAE00"/>
<stop offset="1" stop-color="#5FA200"/>
</linearGradient>
<linearGradient id="paint11_linear_333_4380" x1="42.2356" y1="48.4289" x2="62.8943" y2="55.329" gradientUnits="userSpaceOnUse">
<stop stop-color="#5FA200"/>
<stop offset="0.15" stop-color="#6DA800"/>
<stop offset="0.34" stop-color="#7CAE00"/>
<stop offset="1" stop-color="#5FA200"/>
</linearGradient>
<linearGradient id="paint12_linear_333_4380" x1="48.9968" y1="44.623" x2="68.1219" y2="47.7722" gradientUnits="userSpaceOnUse">
<stop stop-color="#5FA200"/>
<stop offset="0.15" stop-color="#6DA800"/>
<stop offset="0.34" stop-color="#7CAE00"/>
<stop offset="1" stop-color="#5FA200"/>
</linearGradient>
<linearGradient id="paint13_linear_333_4380" x1="54.4513" y1="40.3505" x2="74.0813" y2="43.1518" gradientUnits="userSpaceOnUse">
<stop stop-color="#5FA200"/>
<stop offset="0.15" stop-color="#6DA800"/>
<stop offset="0.34" stop-color="#7CAE00"/>
<stop offset="1" stop-color="#5FA200"/>
</linearGradient>
<linearGradient id="paint14_linear_333_4380" x1="39.3731" y1="57.1935" x2="58.3792" y2="57.8824" gradientUnits="userSpaceOnUse">
<stop stop-color="#5FA200"/>
<stop offset="0.15" stop-color="#6DA800"/>
<stop offset="0.34" stop-color="#7CAE00"/>
<stop offset="1" stop-color="#5FA200"/>
</linearGradient>
<linearGradient id="paint15_linear_333_4380" x1="33.2404" y1="67.784" x2="50.8841" y2="66.909" gradientUnits="userSpaceOnUse">
<stop stop-color="#5FA200"/>
<stop offset="0.15" stop-color="#6DA800"/>
<stop offset="0.34" stop-color="#7CAE00"/>
<stop offset="1" stop-color="#5FA200"/>
</linearGradient>
<linearGradient id="paint16_linear_333_4380" x1="31.7501" y1="78.8626" x2="44.8809" y2="75.8698" gradientUnits="userSpaceOnUse">
<stop stop-color="#5FA200"/>
<stop offset="0.15" stop-color="#6DA800"/>
<stop offset="0.34" stop-color="#7CAE00"/>
<stop offset="1" stop-color="#5FA200"/>
</linearGradient>
<linearGradient id="paint17_linear_333_4380" x1="30.6942" y1="86.1588" x2="42.4858" y2="79.6819" gradientUnits="userSpaceOnUse">
<stop stop-color="#5FA200"/>
<stop offset="0.15" stop-color="#6DA800"/>
<stop offset="0.34" stop-color="#7CAE00"/>
<stop offset="1" stop-color="#5FA200"/>
</linearGradient>
<linearGradient id="paint18_linear_333_4380" x1="88.1349" y1="38.8677" x2="38.9983" y2="91.964" gradientUnits="userSpaceOnUse">
<stop stop-color="white"/>
<stop offset="0.02" stop-color="#FAFCF8"/>
<stop offset="0.23" stop-color="#C0D5AE"/>
<stop offset="0.44" stop-color="#8FB470"/>
<stop offset="0.62" stop-color="#699B40"/>
<stop offset="0.78" stop-color="#4E891D"/>
<stop offset="0.91" stop-color="#3D7E08"/>
<stop offset="1" stop-color="#377A00"/>
</linearGradient>
<radialGradient id="paint19_radial_333_4380" cx="0" cy="0" r="1" gradientUnits="userSpaceOnUse" gradientTransform="translate(51.7326 83.7678) rotate(43.3299) scale(18.4194 18.3976)">
<stop stop-color="#7CAE00"/>
<stop offset="0.11" stop-color="#76A600"/>
<stop offset="0.29" stop-color="#669000"/>
<stop offset="0.5" stop-color="#4D6B00"/>
<stop offset="0.75" stop-color="#293900"/>
<stop offset="1"/>
</radialGradient>
<radialGradient id="paint20_radial_333_4380" cx="0" cy="0" r="1" gradientUnits="userSpaceOnUse" gradientTransform="translate(47.0652 89.6673) rotate(43.3299) scale(12.9701 12.9548)">
<stop stop-color="#7CAE00"/>
<stop offset="0.11" stop-color="#76A600"/>
<stop offset="0.29" stop-color="#669000"/>
<stop offset="0.5" stop-color="#4D6B00"/>
<stop offset="0.75" stop-color="#293900"/>
<stop offset="1"/>
</radialGradient>
<radialGradient id="paint21_radial_333_4380" cx="0" cy="0" r="1" gradientUnits="userSpaceOnUse" gradientTransform="translate(59.6397 80.6033) rotate(43.3299) scale(19.7704 19.7471)">
<stop stop-color="#7CAE00"/>
<stop offset="0.11" stop-color="#76A600"/>
<stop offset="0.29" stop-color="#669000"/>
<stop offset="0.5" stop-color="#4D6B00"/>
<stop offset="0.75" stop-color="#293900"/>
<stop offset="1"/>
</radialGradient>
<radialGradient id="paint22_radial_333_4380" cx="0" cy="0" r="1" gradientUnits="userSpaceOnUse" gradientTransform="translate(67.1225 75.5263) rotate(43.116) scale(25.575 19.3358)">
<stop stop-color="#7CAE00"/>
<stop offset="0.11" stop-color="#76A600"/>
<stop offset="0.29" stop-color="#669000"/>
<stop offset="0.5" stop-color="#4D6B00"/>
<stop offset="0.75" stop-color="#293900"/>
<stop offset="1"/>
</radialGradient>
<radialGradient id="paint23_radial_333_4380" cx="0" cy="0" r="1" gradientUnits="userSpaceOnUse" gradientTransform="translate(76.1691 69.2456) rotate(30.1781) scale(27.2539 20.7703)">
<stop stop-color="#7CAE00"/>
<stop offset="0.11" stop-color="#76A600"/>
<stop offset="0.29" stop-color="#669000"/>
<stop offset="0.5" stop-color="#4D6B00"/>
<stop offset="0.75" stop-color="#293900"/>
<stop offset="1"/>
</radialGradient>
<linearGradient id="paint24_linear_333_4380" x1="38.466" y1="89.2647" x2="24.7102" y2="80.5675" gradientUnits="userSpaceOnUse">
<stop stop-color="white"/>
<stop offset="1" stop-color="#377A00"/>
</linearGradient>
<linearGradient id="paint25_linear_333_4380" x1="57.2372" y1="59.5699" x2="43.4689" y2="50.8701" gradientUnits="userSpaceOnUse">
<stop stop-color="white"/>
<stop offset="1" stop-color="#377A00"/>
</linearGradient>
</defs>
</svg>
